<?xml version="1.0" encoding="UTF-8"?>
<svg width="390px" height="400px" viewBox="0 0 390 400" version="1.1" xmlns="http://www.w3.org/2000/svg" xmlns:xlink="http://www.w3.org/1999/xlink">
    <title>bg_squircle_detail</title>
    <g id="bg_squircle_detail" stroke="none" stroke-width="1" fill="none" fill-rule="evenodd">
        <g id="44#f6f7f9" transform="translate(0.000000, 110.000000)">
            <path d="M92,0 L92,92 L0,92 L0,0 L92,0 Z M46,2 C13.6112857,2 2,14.8330714 2,46 C2,78.3895 13.6112857,90 46,90 C78.3895,90 90,78.3895 90,46 C90,13.6112857 78.3895,2 46,2 Z" id="Combined-Shape" fill="#F6F7F9"></path>
            <path d="M46,3 C61.8265919,3 72.6314603,5.75384352 79.4388292,12.5612125 C86.2462806,19.3686638 89,30.1736008 89,46 C89,61.8266875 86.2463184,72.6315931 79.4389557,79.4389557 C72.6315931,86.2463184 61.8266875,89 46,89 C30.1736008,89 19.3686638,86.2462806 12.5612125,79.4388292 C5.75384352,72.6314603 3,61.8265919 3,46 C3,30.6247936 5.81405305,19.7645929 12.7628555,12.8157904 C19.5796096,5.99903631 30.3253377,3 46,3 Z" id="SquircleShape" stroke-opacity="0.05" stroke="#000000" stroke-width="2"></path>
        </g>
        <g id="52#fff">
            <path d="M108,0 L108,108 L0,108 L0,0 L108,0 Z M54,2 C15.7224286,2 2,17.1663571 2,54 C2,92.2785 15.7224286,106 54,106 C92.2785,106 106,92.2785 106,54 C106,15.7224286 92.2785,2 54,2 Z" id="Combined-Shape" fill="#FFFFFF"></path>
            <path d="M54,3 C72.771074,3 85.5759361,6.28162283 93.6471813,14.352868 C101.718524,22.4242109 105,35.2291544 105,54 C105,72.7711875 101.718568,85.5760931 93.6473307,93.6473307 C85.5760931,101.718568 72.7711875,105 54,105 C35.2291544,105 22.4242109,101.718524 14.352868,93.6471813 C6.28162283,85.5759361 3,72.771074 3,54 C3,35.7642099 6.35203077,22.8928756 14.5911735,14.6537329 C22.6737054,6.57120101 35.409203,3 54,3 L54,3 Z" id="SquircleShape" stroke-opacity="0.05" stroke="#000000" stroke-width="2"></path>
        </g>
        <g id="39#fff" transform="translate(110.000000, 0.000000)">
            <path d="M82,0 L82,82 L0,82 L0,0 L82,0 Z M41,2 C12.2918214,2 2,13.3747679 2,41 C2,69.708875 12.2918214,80 41,80 C69.708875,80 80,69.708875 80,41 C80,12.2918214 69.708875,2 41,2 Z" id="Combined-Shape" fill="#FFFFFF"></path>
            <path d="M41,3 C54.9862905,3 64.541163,5.42398145 70.5586092,11.4414277 C76.5761283,17.4589468 79,27.0138798 79,41 C79,54.986375 76.5761621,64.5412806 70.5587213,70.5587213 C64.5412806,76.5761621 54.986375,79 41,79 C27.0138798,79 17.4589468,76.5761283 11.4414277,70.5586092 C5.42398145,64.541163 3,54.9862905 3,41 C3,27.4126584 5.47781697,17.8094162 11.6201568,11.6670764 C17.6457998,5.64143337 27.1479219,3 41,3 L41,3 Z" id="SquircleShape" stroke-opacity="0.05" stroke="#000000" stroke-width="2"></path>
        </g>
        <g id="35#fff" transform="translate(100.000000, 160.000000)">
            <path d="M74,0 L74,74 L0,74 L0,0 L74,0 Z M37,2 C11.23625,2 2,12.208125 2,37 C2,62.764375 11.23625,72 37,72 C62.764375,72 72,62.764375 72,37 C72,11.23625 62.764375,2 37,2 Z" id="Combined-Shape" fill="#FFFFFF"></path>
            <path d="M37,3 C49.5140495,3 58.0689251,5.16009179 63.4544332,10.5455999 C68.8400065,15.9311732 71,24.486103 71,37 C71,49.514125 68.8400371,58.0690306 63.4545338,63.4545338 C58.0690306,68.8400371 49.514125,71 37,71 C24.486103,71 15.9311732,68.8400065 10.5455999,63.4544332 C5.16009179,58.0689251 3,49.5140495 3,37 C3,24.8429502 5.2088281,16.2452749 10.7059978,10.7481051 C16.0987519,5.35535102 24.6059893,3 37,3 L37,3 Z" id="SquircleShape" stroke-opacity="0.05" stroke="#000000" stroke-width="2"></path>
        </g>
        <g id="30#fff" transform="translate(110.000000, 90.000000)">
            <path d="M64,0 L64,64 L0,64 L0,0 L64,0 Z M32,2 C9.91678571,2 2,10.7498214 2,32 C2,54.08375 9.91678571,62 32,62 C54.08375,62 62,54.08375 62,32 C62,9.91678571 54.08375,2 32,2 Z" id="Combined-Shape" fill="#FFFFFF"></path>
            <path d="M32,3 C42.6737481,3 49.9786278,4.83022972 54.5742132,9.42581519 C59.1698543,14.0214562 61,21.326382 61,32 C61,42.6738125 59.1698809,49.9787181 54.5742995,54.5742995 C49.9787181,59.1698809 42.6738125,61 32,61 C21.326382,61 14.0214562,59.1698543 9.42581519,54.5742132 C4.83022972,49.9786278 3,42.6737481 3,32 C3,21.630815 4.87259203,14.2900982 9.56329909,9.5993911 C14.1649421,4.99774809 21.4285735,3 32,3 Z" id="SquircleShape" stroke-opacity="0.05" stroke="#000000" stroke-width="2"></path>
        </g>
        <g id="79-#fff" transform="translate(200.000000, 0.000000)">
            <path d="M160,0 L160,160 L0,160 L0,0 L160,0 Z M80,2 C22.5836429,2 2,24.7495357 2,80 C2,137.41775 22.5836429,158 80,158 C137.41775,158 158,137.41775 158,80 C158,22.5836429 137.41775,2 80,2 Z" id="Combined-Shape" fill="#FFFFFF"></path>
            <path d="M80,3 C108.340641,3 127.645482,7.9969056 139.824325,20.1757487 C152.003316,32.3547393 157,51.6597035 157,80 C157,108.340812 152.003381,127.645718 139.824549,139.824549 C127.645718,152.003381 108.340812,157 80,157 C51.6597035,157 32.3547393,152.003316 20.1757487,139.824325 C7.9969056,127.645482 3,108.340641 3,80 C3,52.4673131 8.10045838,33.0597944 20.5332068,20.627046 C32.7295165,8.43073629 51.931765,3 80,3 Z" id="SquircleShape" stroke-opacity="0.05" stroke="#000000" stroke-width="2"></path>
        </g>
        <g id="40-#fff" transform="translate(200.000000, 300.000000)">
            <path d="M42,2 C71.7111111,2 82,12.2888889 82,42 C82,71.7111111 71.7111111,82 42,82 C12.2888889,82 2,71.7111111 2,42 C2,12.2888889 12.2888889,2 42,2 Z M42,4 C13.3934584,4 4,13.3934584 4,42 C4,70.6065416 13.3934584,80 42,80 C70.6065416,80 80,70.6065416 80,42 C80,13.3934584 70.6065416,4 42,4 Z" id="line" fill-opacity="0.05" fill="#000000" fill-rule="nonzero"></path>
            <path d="M84,0 L84,84 L0,84 L0,0 L84,0 Z M42,2 C12.5555556,2 2,13.6666667 2,42 C2,71.4444444 12.5555556,82 42,82 C71.4444444,82 82,71.4444444 82,42 C82,12.5555556 71.4444444,2 42,2 Z" id="Combined-Shape" fill="#FFFFFF"></path>
        </g>
        <g id="61-#fff" transform="translate(180.000000, 170.000000)">
            <path d="M124,0 L124,124 L0,124 L0,0 L124,0 Z M62,2 C17.8335714,2 2,19.4996429 2,62 C2,106.1675 17.8335714,122 62,122 C106.1675,122 122,106.1675 122,62 C122,17.8335714 106.1675,2 62,2 Z" id="Combined-Shape" fill="#FFFFFF"></path>
            <path d="M62,3 C83.7155562,3 98.5204118,6.80940214 107.855533,16.1445236 C117.190768,25.4797581 121,40.2847079 121,62 C121,83.7156875 117.190818,98.5205931 107.855706,107.855706 C98.5205931,117.190818 83.7156875,121 62,121 C40.2847079,121 25.4797581,117.190768 16.1445236,107.855533 C6.80940214,98.5204118 3,83.7155562 3,62 C3,40.9036263 6.8900085,26.0211583 16.4194914,16.4916754 C25.7678011,7.14336571 40.4930682,3 62,3 L62,3 Z" id="SquircleShape" stroke-opacity="0.05" stroke="#000000" stroke-width="2"></path>
        </g>
        <g id="36-#F6F6F6" transform="translate(310.000000, 170.000000)">
            <path d="M74,0 L74,74 L0,74 L0,0 L74,0 Z M37,2 C11.23625,2 2,12.208125 2,37 C2,62.764375 11.23625,72 37,72 C62.764375,72 72,62.764375 72,37 C72,11.23625 62.764375,2 37,2 Z" id="Combined-Shape" fill="#F6F6F6"></path>
            <path d="M37,3 C49.5140495,3 58.0689251,5.16009179 63.4544332,10.5455999 C68.8400065,15.9311732 71,24.486103 71,37 C71,49.514125 68.8400371,58.0690306 63.4545338,63.4545338 C58.0690306,68.8400371 49.514125,71 37,71 C24.486103,71 15.9311732,68.8400065 10.5455999,63.4544332 C5.16009179,58.0689251 3,49.5140495 3,37 C3,24.8429502 5.2088281,16.2452749 10.7059978,10.7481051 C16.0987519,5.35535102 24.6059893,3 37,3 L37,3 Z" id="SquircleShape" stroke-opacity="0.05" stroke="#000000" stroke-width="2"></path>
        </g>
        <g id="21-#fff" transform="translate(310.000000, 250.000000)">
            <path d="M44,0 L44,44 L0,44 L0,0 L44,0 Z M22,2 C7.27785714,2 2,7.83321429 2,22 C2,36.7225 7.27785714,42 22,42 C36.7225,42 42,36.7225 42,22 C42,7.27785714 36.7225,2 22,2 Z" id="Combined-Shape" fill="#FFFFFF"></path>
            <path d="M22,3 C28.9931454,3 33.7980331,4.17050558 36.8137732,7.18624572 C39.8295498,10.2020223 41,15.0069401 41,22 C41,28.9931875 39.8295684,33.7980931 36.8138307,36.8138307 C33.7980931,39.8295684 28.9931875,41 22,41 C15.0069401,41 10.2020223,39.8295498 7.18624572,36.8137732 C4.17050558,33.7980331 3,28.9931454 3,22 C3,15.2065445 4.20011987,10.3797448 7.27790166,7.30196299 C10.2973224,4.28254221 15.073742,3 22,3 Z" id="SquircleShape" stroke-opacity="0.05" stroke="#000000" stroke-width="2"></path>
        </g>
        <g id="64-#fff" transform="translate(0.000000, 240.000000)">
            <path d="M132,0 L132,132 L0,132 L0,0 L132,0 Z M66,2 C18.8891429,2 2,20.6662857 2,66 C2,113.112 18.8891429,130 66,130 C113.112,130 130,113.112 130,66 C130,18.8891429 113.112,2 66,2 Z" id="Combined-Shape" fill="#FFFFFF"></path>
            <path d="M66,3 C89.1877972,3 104.99265,7.0732918 114.959709,17.0403514 C124.92689,27.0075317 129,42.8124847 129,66 C129,89.1879375 124.926943,104.992843 114.959893,114.959893 C104.992843,124.926943 89.1879375,129 66,129 C42.8124847,129 27.0075317,124.92689 17.0403514,114.959709 C7.0732918,104.99265 3,89.1877972 3,66 C3,43.4733345 7.15899736,27.5852997 17.3336504,17.4106467 C27.314849,7.42944806 43.0350008,3 66,3 L66,3 Z" id="SquircleShape" stroke-opacity="0.05" stroke="#000000" stroke-width="2"></path>
        </g>
        <g id="26-#fff" transform="translate(140.000000, 300.000000)">
            <path d="M56,0 L56,56 L0,56 L0,0 L56,0 Z M28,2 C8.86121429,2 2,9.58317857 2,28 C2,47.13925 8.86121429,54 28,54 C47.13925,54 54,47.13925 54,28 C54,8.86121429 47.13925,2 28,2 Z" id="Combined-Shape" fill="#FFFFFF"></path>
            <path d="M28,3 C37.201507,3 43.5063899,4.56634006 47.4700372,8.5299874 C51.4337325,12.4936826 53,18.7986053 53,28 C53,37.2015625 51.4337559,43.5064681 47.470112,47.470112 C43.5064681,51.4337559 37.2015625,53 28,53 C18.7986053,53 12.4936826,51.4337325 8.5299874,47.4700372 C4.56634006,43.5063899 3,37.201507 3,28 C3,19.0611068 4.60360316,12.7259568 8.64914012,8.68041986 C12.6178942,4.71166574 18.8866409,3 28,3 L28,3 Z" id="SquircleShape" stroke-opacity="0.05" stroke="#000000" stroke-width="2"></path>
        </g>
        <g id="스퀘어클이미지-#fafafa" transform="translate(290.000000, 300.000000)">
            <path d="M32,3 C42.7702778,3 50.0772932,4.77900671 54.6491432,9.35085678 C59.2209933,13.9227068 61,21.2297222 61,32 C61,42.7702778 59.2209933,50.0772932 54.6491432,54.6491432 C50.0772932,59.2209933 42.7702778,61 32,61 C21.2297222,61 13.9227068,59.2209933 9.35085678,54.6491432 C4.77900671,50.0772932 3,42.7702778 3,32 C3,21.2297222 4.77900671,13.9227068 9.35085678,9.35085678 C13.9227068,4.77900671 21.2297222,3 32,3 Z" id="line" stroke-opacity="0.05" stroke="#000000" stroke-width="2"></path>
            <path d="M64,0 L64,64 L0,64 L0,0 L64,0 Z M32,2 C9.71666667,2 2,9.71666667 2,32 C2,54.2833333 9.71666667,62 32,62 C54.2833333,62 62,54.2833333 62,32 C62,9.71666667 54.2833333,2 32,2 Z" id="Combined-Shape" fill="#FAFAFA"></path>
        </g>
    </g>
</svg>