<?xml version="1.0" encoding="UTF-8"?>
<svg width="380px" height="480px" viewBox="0 0 380 480" version="1.1" xmlns="http://www.w3.org/2000/svg" xmlns:xlink="http://www.w3.org/1999/xlink">
    <title>bg_squircle</title>
    <g id="bg_squircle" stroke="none" stroke-width="1" fill="none" fill-rule="evenodd">
        <g>
            <g id="60#fff" transform="translate(0.000000, 350.000000)">
                <path d="M124,0 L124,124 L0,124 L0,0 L124,0 Z M62,2 C17.8335714,2 2,19.4996429 2,62 C2,106.1675 17.8335714,122 62,122 C106.1675,122 122,106.1675 122,62 C122,17.8335714 106.1675,2 62,2 Z" id="Combined-Shape" fill="#F1F5F8" fill-rule="nonzero"></path>
                <path d="M62,3 C83.7155562,3 98.5204118,6.80940214 107.855533,16.1445236 C117.190768,25.4797581 121,40.2847079 121,62 C121,83.7156875 117.190818,98.5205931 107.855706,107.855706 C98.5205931,117.190818 83.7156875,121 62,121 C40.2847079,121 25.4797581,117.190768 16.1445236,107.855533 C6.80940214,98.5204118 3,83.7155562 3,62 C3,40.9036263 6.8900085,26.0211583 16.4194914,16.4916754 C25.7678011,7.14336571 40.4930682,3 62,3 L62,3 Z" id="SquircleShape" stroke-opacity="0.05" stroke="#000000" stroke-width="2"></path>
            </g>
            <g id="48#fff" transform="translate(0.000000, 240.000000)">
                <path d="M100,0 L100,100 L0,100 L0,0 L100,0 Z M50,2 C14.6668571,2 2,15.9997143 2,50 C2,85.334 14.6668571,98 50,98 C85.334,98 98,85.334 98,50 C98,14.6668571 85.334,2 50,2 Z" id="Combined-Shape" fill="#FFFFFF" fill-rule="nonzero"></path>
                <path d="M50,3 C67.2988329,3 79.1036982,6.01773317 86.5430052,13.4570402 C93.9824024,20.8964374 97,32.7013776 97,50 C97,67.2989375 93.9824434,79.1038431 86.5431432,86.5431432 C79.1038431,93.9824434 67.2989375,97 50,97 C32.7013776,97 20.8964374,93.9824024 13.4570402,86.5430052 C6.01773317,79.1036982 3,67.2988329 3,50 C3,33.1945018 6.08304191,21.3287343 13.6770145,13.7347617 C21.1266575,6.28511866 32.8672703,3 50,3 L50,3 Z" id="SquircleShape" stroke-opacity="0.05" stroke="#000000" stroke-width="2"></path>
            </g>
            <g id="50#fff" transform="translate(0.000000, 130.000000)">
                <path d="M104,0 L104,104 L0,104 L0,0 L104,0 Z M52,2 C15.1946429,2 2,16.5830357 2,52 C2,88.80625 15.1946429,102 52,102 C88.80625,102 102,88.80625 102,52 C102,15.1946429 88.80625,2 52,2 Z" id="Combined-Shape" fill="#FFFFFF" fill-rule="nonzero"></path>
                <path d="M52,3 C70.0349535,3 82.3398171,6.149678 90.0950933,13.9049541 C97.8504633,21.6603242 101,33.965266 101,52 C101,70.0350625 97.8505059,82.3399681 90.095237,90.095237 C82.3399681,97.8505059 70.0350625,101 52,101 C33.965266,101 21.6603242,97.8504633 13.9049541,90.0950933 C6.149678,82.3398171 3,70.0349535 3,52 C3,34.4793558 6.21753634,22.1108049 14.134094,14.1942473 C21.9001814,6.42815984 34.1382367,3 52,3 L52,3 Z" id="SquircleShape" stroke-opacity="0.05" stroke="#000000" stroke-width="2"></path>
            </g>
            <g id="60#fff">
                <path d="M124,0 L124,124 L0,124 L0,0 L124,0 Z M62,2 C17.8335714,2 2,19.4996429 2,62 C2,106.1675 17.8335714,122 62,122 C106.1675,122 122,106.1675 122,62 C122,17.8335714 106.1675,2 62,2 Z" id="Combined-Shape" fill="#FFFFFF" fill-rule="nonzero"></path>
                <path d="M62,3 C83.7155562,3 98.5204118,6.80940214 107.855533,16.1445236 C117.190768,25.4797581 121,40.2847079 121,62 C121,83.7156875 117.190818,98.5205931 107.855706,107.855706 C98.5205931,117.190818 83.7156875,121 62,121 C40.2847079,121 25.4797581,117.190768 16.1445236,107.855533 C6.80940214,98.5204118 3,83.7155562 3,62 C3,40.9036263 6.8900085,26.0211583 16.4194914,16.4916754 C25.7678011,7.14336571 40.4930682,3 62,3 L62,3 Z" id="SquircleShape" stroke-opacity="0.05" stroke="#000000" stroke-width="2"></path>
            </g>
            <g id="45##1B1D21" transform="translate(130.000000, 0.000000)" fill="#1B1D21" fill-rule="nonzero">
                <path d="M94,0 L94,94 L0,94 L0,0 L94,0 Z M47,2 C13.8751786,2 2,15.1247321 2,47 C2,80.125625 13.8751786,92 47,92 C80.125625,92 92,80.125625 92,47 C92,13.8751786 80.125625,2 47,2 Z" id="Combined-Shape"></path>
            </g>
            <g id="39#fff" transform="translate(130.000000, 100.000000)">
                <path d="M82,0 L82,82 L0,82 L0,0 L82,0 Z M41,2 C12.2918214,2 2,13.3747679 2,41 C2,69.708875 12.2918214,80 41,80 C69.708875,80 80,69.708875 80,41 C80,12.2918214 69.708875,2 41,2 Z" id="Combined-Shape" fill="#FFFFFF" fill-rule="nonzero"></path>
                <path d="M41,3 C54.9862905,3 64.541163,5.42398145 70.5586092,11.4414277 C76.5761283,17.4589468 79,27.0138798 79,41 C79,54.986375 76.5761621,64.5412806 70.5587213,70.5587213 C64.5412806,76.5761621 54.986375,79 41,79 C27.0138798,79 17.4589468,76.5761283 11.4414277,70.5586092 C5.42398145,64.541163 3,54.9862905 3,41 C3,27.4126584 5.47781697,17.8094162 11.6201568,11.6670764 C17.6457998,5.64143337 27.1479219,3 41,3 L41,3 Z" id="SquircleShape" stroke-opacity="0.05" stroke="#000000" stroke-width="2"></path>
            </g>
            <g id="35#fff" transform="translate(110.000000, 190.000000)">
                <path d="M74,0 L74,74 L0,74 L0,0 L74,0 Z M37,2 C11.23625,2 2,12.208125 2,37 C2,62.764375 11.23625,72 37,72 C62.764375,72 72,62.764375 72,37 C72,11.23625 62.764375,2 37,2 Z" id="Combined-Shape" fill="#FFFFFF" fill-rule="nonzero"></path>
                <path d="M37,3 C49.5140495,3 58.0689251,5.16009179 63.4544332,10.5455999 C68.8400065,15.9311732 71,24.486103 71,37 C71,49.514125 68.8400371,58.0690306 63.4545338,63.4545338 C58.0690306,68.8400371 49.514125,71 37,71 C24.486103,71 15.9311732,68.8400065 10.5455999,63.4544332 C5.16009179,58.0689251 3,49.5140495 3,37 C3,24.8429502 5.2088281,16.2452749 10.7059978,10.7481051 C16.0987519,5.35535102 24.6059893,3 37,3 L37,3 Z" id="SquircleShape" stroke-opacity="0.05" stroke="#000000" stroke-width="2"></path>
            </g>
            <g id="30#fff" transform="translate(110.000000, 270.000000)">
                <path d="M64,0 L64,64 L0,64 L0,0 L64,0 Z M32,2 C9.91678571,2 2,10.7498214 2,32 C2,54.08375 9.91678571,62 32,62 C54.08375,62 62,54.08375 62,32 C62,9.91678571 54.08375,2 32,2 Z" id="Combined-Shape" fill="#FFFFFF" fill-rule="nonzero"></path>
                <path d="M32,3 C42.6737481,3 49.9786278,4.83022972 54.5742132,9.42581519 C59.1698543,14.0214562 61,21.326382 61,32 C61,42.6738125 59.1698809,49.9787181 54.5742995,54.5742995 C49.9787181,59.1698809 42.6738125,61 32,61 C21.326382,61 14.0214562,59.1698543 9.42581519,54.5742132 C4.83022972,49.9786278 3,42.6737481 3,32 C3,21.630815 4.87259203,14.2900982 9.56329909,9.5993911 C14.1649421,4.99774809 21.4285735,3 32,3 Z" id="SquircleShape" stroke-opacity="0.05" stroke="#000000" stroke-width="2"></path>
            </g>
            <g id="78#fff" transform="translate(190.000000, 190.000000)">
                <path d="M160,0 L160,160 L0,160 L0,0 L160,0 Z M80,2 C22.5836429,2 2,24.7495357 2,80 C2,137.41775 22.5836429,158 80,158 C137.41775,158 158,137.41775 158,80 C158,22.5836429 137.41775,2 80,2 Z" id="Combined-Shape" fill="#FFFFFF" fill-rule="nonzero"></path>
                <path d="M80,3 C108.340641,3 127.645482,7.9969056 139.824325,20.1757487 C152.003316,32.3547393 157,51.6597035 157,80 C157,108.340812 152.003381,127.645718 139.824549,139.824549 C127.645718,152.003381 108.340812,157 80,157 C51.6597035,157 32.3547393,152.003316 20.1757487,139.824325 C7.9969056,127.645482 3,108.340641 3,80 C3,52.4673131 8.10045838,33.0597944 20.5332068,20.627046 C32.7295165,8.43073629 51.931765,3 80,3 Z" id="SquircleShape" stroke-opacity="0.05" stroke="#000000" stroke-width="2"></path>
            </g>
            <g id="Group" transform="translate(230.000000, 0.000000)">
                <path d="M48,0 L48,48 L0,48 L0,0 L48,0 Z M24,2 C7.80564286,2 2,8.41653571 2,24 C2,40.19475 7.80564286,46 24,46 C40.19475,46 46,40.19475 46,24 C46,7.80564286 40.19475,2 24,2 Z" id="Rectangle-2" fill="#FFFFFF" fill-rule="nonzero"></path>
                <path d="M24,3 C31.729266,3 37.034152,4.30245041 40.3658612,7.63415962 C43.6976107,10.9659091 45,16.2708285 45,24 C45,31.7293125 43.6976309,37.0342181 40.3659245,40.3659245 C37.0342181,43.6976309 31.7293125,45 24,45 C16.2708285,45 10.9659091,43.6976107 7.63415962,40.3658612 C4.30245041,37.034152 3,31.729266 3,24 C3,16.4913986 4.3346143,11.1618155 7.73498114,7.76144861 C11.0708464,4.42558339 16.3447083,3 24,3 L24,3 Z" id="SquircleShape" stroke-opacity="0.05" stroke="#000000" stroke-width="2"></path>
            </g>
            <g id="Group-2" transform="translate(230.000000, 60.000000)">
                <path d="M44,0 L44,44 L0,44 L0,0 L44,0 Z M22,2 C7.27785714,2 2,7.83321429 2,22 C2,36.7225 7.27785714,42 22,42 C36.7225,42 42,36.7225 42,22 C42,7.27785714 36.7225,2 22,2 Z" id="Combined-Shape" fill="#FFFFFF" fill-rule="nonzero"></path>
                <path d="M22,3 C28.9931454,3 33.7980331,4.17050558 36.8137732,7.18624572 C39.8295498,10.2020223 41,15.0069401 41,22 C41,28.9931875 39.8295684,33.7980931 36.8138307,36.8138307 C33.7980931,39.8295684 28.9931875,41 22,41 C15.0069401,41 10.2020223,39.8295498 7.18624572,36.8137732 C4.17050558,33.7980331 3,28.9931454 3,22 C3,15.2065445 4.20011987,10.3797448 7.27790166,7.30196299 C10.2973224,4.28254221 15.073742,3 22,3 Z" id="SquircleShape" stroke-opacity="0.05" stroke="#000000" stroke-width="2"></path>
            </g>
            <g id="Group-3" transform="translate(280.000000, 0.000000)">
                <path d="M94,0 L94,94 L0,94 L0,0 L94,0 Z M47,2 C13.8751786,2 2,15.1247321 2,47 C2,80.125625 13.8751786,92 47,92 C80.125625,92 92,80.125625 92,47 C92,13.8751786 80.125625,2 47,2 Z" id="Combined-Shape" fill="#FFFFFF" fill-rule="nonzero"></path>
                <path d="M47,3 C63.1946521,3 74.2495198,5.81981593 81.2148732,12.7851694 C88.180311,19.7506072 91,30.805545 91,47 C91,63.19475 88.1803496,74.2496556 81.2150026,81.2150026 C74.2496556,88.1803496 63.19475,91 47,91 C30.805545,91 19.7506072,88.180311 12.7851694,81.2148732 C5.81981593,74.2495198 3,63.1946521 3,47 C3,31.2672206 5.88130026,20.1556282 12.9913952,13.0455333 C19.9663716,6.0705569 30.9608209,3 47,3 Z" id="SquircleShape" stroke-opacity="0.05" stroke="#000000" stroke-width="2"></path>
            </g>
            <g id="Group-4" transform="translate(220.000000, 110.000000)">
                <path d="M54,0 L54,54 L0,54 L0,0 L54,0 Z M27,2 C8.59732143,2 2,9.29151786 2,27 C2,45.403125 8.59732143,52 27,52 C45.403125,52 52,45.403125 52,27 C52,8.59732143 45.403125,2 27,2 Z" id="Combined-Shape" fill="#FFFFFF" fill-rule="nonzero"></path>
                <path d="M27,3 C35.8334468,3 41.8883304,4.46910999 45.6939932,8.19548816 C49.499702,11.9219113 51,17.850689 51,26.5 C51,35.1494687 49.4997246,41.0782305 45.6940651,44.8046054 C41.8884056,48.5309803 35.8335,50 27,50 C18.1666611,50 12.1117392,48.5309582 8.30603046,44.804535 C4.50036765,41.0781568 3,35.1494167 3,26.5 C3,18.0974573 4.53635595,12.140444 8.42060037,8.33712127 C12.2311323,4.60597546 18.2511577,3 27,3 L27,3 Z" id="SquircleShape" stroke-opacity="0.05" stroke="#000000" stroke-width="2"></path>
            </g>
            <g id="Group-2" transform="translate(280.000000, 110.000000)">
                <path d="M44,0 L44,44 L0,44 L0,0 L44,0 Z M22,2 C7.27785714,2 2,7.83321429 2,22 C2,36.7225 7.27785714,42 22,42 C36.7225,42 42,36.7225 42,22 C42,7.27785714 36.7225,2 22,2 Z" id="Combined-Shape" fill="#FFFCE0" fill-rule="nonzero"></path>
                <path d="M22,3 C28.9931454,3 33.7980331,4.17050558 36.8137732,7.18624572 C39.8295498,10.2020223 41,15.0069401 41,22 C41,28.9931875 39.8295684,33.7980931 36.8138307,36.8138307 C33.7980931,39.8295684 28.9931875,41 22,41 C15.0069401,41 10.2020223,39.8295498 7.18624572,36.8137732 C4.17050558,33.7980331 3,28.9931454 3,22 C3,15.2065445 4.20011987,10.3797448 7.27790166,7.30196299 C10.2973224,4.28254221 15.073742,3 22,3 Z" id="SquircleShape" stroke-opacity="0.05" stroke="#000000" stroke-width="2"></path>
            </g>
            <g id="40#fff" transform="translate(250.000000, 360.000000)">
                <path d="M83.64,0 L83.64,83.64 L0,83.64 L0,0 L83.64,0 Z M41.82,2.04 C12.5376578,2.04 2.04,13.6422633 2.04,41.82 C2.04,71.1030525 12.5376578,81.6 41.82,81.6 C71.1030525,81.6 81.6,71.1030525 81.6,41.82 C81.6,12.5376578 71.1030525,2.04 41.82,2.04 Z" id="Combined-Shape" fill="#FFFFFF" fill-rule="nonzero"></path>
                <path d="M41.82,3.06 C56.0860163,3.06 65.8319863,5.53246108 71.9697814,11.6702563 C78.1076509,17.8081257 80.58,27.5541574 80.58,41.82 C80.58,56.0861025 78.1076853,65.8321062 71.9698957,71.9698957 C65.8321062,78.1076853 56.0861025,80.58 41.82,80.58 C27.5541574,80.58 17.8081257,78.1076509 11.6702563,71.9697814 C5.53246108,65.8319863 3.06,56.0860163 3.06,41.82 C3.06,27.9609116 5.58737331,18.1656045 11.8525599,11.9004179 C17.9987158,5.75426204 27.6908803,3.06 41.82,3.06 L41.82,3.06 Z" id="SquircleShape" stroke-opacity="0.05" stroke="#000000" stroke-width="2.04"></path>
            </g>
            <g id="58#fff" transform="translate(130.000000, 360.000000)">
                <path d="M108,0 L108,108 L0,108 L0,0 L108,0 Z M54,2.07692308 C15.7790522,2.07692308 2.07692308,17.2208448 2.07692308,54 C2.07692308,92.221875 15.7790522,105.923077 54,105.923077 C92.221875,105.923077 105.923077,92.221875 105.923077,54 C105.923077,15.7790522 92.221875,2.07692308 54,2.07692308 Z" id="Combined-Shape" fill="#FFFFFF" fill-rule="nonzero"></path>
                <path d="M54,3 C72.7710741,3 85.578177,6.27823629 93.6499951,14.3500543 C101.721911,22.4219701 105,35.2291544 105,54 C105,72.7711875 101.721955,85.5783341 93.6501446,93.6501446 C85.5783341,101.721955 72.7711875,105 54,105 C35.2291544,105 22.4219701,101.721911 14.3500543,93.6499951 C6.27823629,85.578177 3,72.7710741 3,54 C3,35.7642275 6.34886435,22.8908378 14.5885468,14.6511554 C22.6716174,6.56808473 35.4091851,3 54,3 L54,3 Z" id="SquircleShape" stroke-opacity="0.05" stroke="#000000" stroke-width="2"></path>
            </g>
            <g id="23#FFF" transform="translate(330.000000, 110.000000)">
                <path d="M50,0 L50,50 L0,50 L0,0 L50,0 Z M25,1.5625 C7.74748884,1.5625 1.5625,8.39829797 1.5625,25 C1.5625,42.2529297 7.74748884,48.4375 25,48.4375 C42.2529297,48.4375 48.4375,42.2529297 48.4375,25 C48.4375,7.74748884 42.2529297,1.5625 25,1.5625 Z" id="Combined-Shape" fill="#FFFFFF" fill-rule="nonzero"></path>
                <path d="M25,2 C33.4653864,2 39.2589117,3.4515615 42.9036863,7.09633619 C46.5485051,10.7411549 48,16.5347168 48,25 C48,33.4654375 46.5485262,39.2589833 42.9037548,42.9037548 C39.2589833,46.5485262 33.4654375,48 25,48 C16.5347168,48 10.7411549,46.5485051 7.09633619,42.9036863 C3.4515615,39.2589117 2,33.4653864 2,25 C2,16.7761636 3.4851592,10.9542158 7.20537514,7.23399984 C10.8549541,3.5844209 16.6157652,2 25,2 Z" id="SquircleShape" stroke-opacity="0.05" stroke="#000000" stroke-width="2"></path>
            </g>
        </g>
    </g>
</svg>