<?xml version="1.0" encoding="UTF-8"?>
<svg width="150px" height="150px" viewBox="0 0 150 150" version="1.1" xmlns="http://www.w3.org/2000/svg" xmlns:xlink="http://www.w3.org/1999/xlink">
    <title>ico_live</title>
    <g id="ico_live" stroke="none" stroke-width="1" fill="none" fill-rule="evenodd">
        <path d="M18.4209964,0.000352268519 L21.4309879,9.13984157 L21.4688387,9.13984157 L24.5169252,0.000352268519 L27.5840591,0.000352268519 L23.0969105,13 L19.7460178,13 L15.3726658,0.000352268519 L18.4209964,0.000352268519 Z M2.9723849,4.17443857e-14 L2.9723849,10.5964719 L9.56086211,10.5964719 L9.56086211,12.9996477 L1.04805054e-13,12.9996477 L1.04805054e-13,4.17443857e-14 L2.9723849,4.17443857e-14 Z M14.19873,0.000258330247 L14.19873,12.9999061 L11.2263451,12.9999061 L11.2263451,0.000258330247 L14.19873,0.000258330247 Z M38.8483527,4.17443857e-14 L38.8483527,2.40341068 L31.7109171,2.40341068 L31.7109171,5.18915013 L38.2615435,5.18915013 L38.2615435,7.41055541 L31.7109171,7.41055541 L31.7109171,10.5964719 L39,10.5964719 L39,12.9996477 L28.7387764,12.9996477 L28.7387764,4.17443857e-14 L38.8483527,4.17443857e-14 Z" id="Combined-Shape" fill="#FFFFFF"></path>
        <path d="M2.42449664,30.8005181 L2.42449664,27.2810881 C2.42449664,25.9987047 2.21057047,24.5453368 2.09647651,23.3626943 L2.16778523,23.3626943 L3.20889262,25.6852332 L5.83305369,30.8005181 L8.42869128,30.8005181 L8.42869128,20.1994819 L6.00419463,20.1994819 L6.00419463,23.7046632 C6.00419463,24.9727979 6.20385906,26.4974093 6.34647651,27.623057 L6.27516779,27.623057 L5.2340604,25.2720207 L2.59563758,20.1994819 L0,20.1994819 L0,30.8005181 L2.42449664,30.8005181 Z M15.2743289,31 C18.1694631,31 20.1375839,28.9196891 20.1375839,25.4430052 C20.1375839,21.9805699 18.1694631,20 15.2743289,20 C12.3791946,20 10.4110738,21.9663212 10.4110738,25.4430052 C10.4110738,28.9196891 12.3791946,31 15.2743289,31 L15.2743289,31 Z M15.2743289,28.8056995 C13.8766779,28.8056995 13.0209732,27.5090674 13.0209732,25.4430052 C13.0209732,23.3911917 13.8766779,22.1800518 15.2743289,22.1800518 C16.6719799,22.1800518 17.5419463,23.3911917 17.5419463,25.4430052 C17.5419463,27.5090674 16.6719799,28.8056995 15.2743289,28.8056995 Z M26.170302,30.8005181 L27.0973154,26.1839378 C27.2541946,25.3717617 27.3825503,24.5168394 27.510906,23.7189119 L27.5822148,23.7189119 C27.682047,24.5168394 27.8246644,25.3717617 27.9958054,26.1839378 L28.9513423,30.8005181 L32.1602349,30.8005181 L34,20.1994819 L31.5755034,20.1994819 L30.8909396,25.0297927 C30.7625839,26.126943 30.6199664,27.2525907 30.4916107,28.392487 L30.420302,28.392487 C30.2063758,27.2525907 30.0209732,26.1126943 29.807047,25.0297927 L28.6946309,20.1994819 L26.5553691,20.1994819 L25.4714765,25.0297927 C25.2575503,26.126943 25.0436242,27.2668394 24.8439597,28.392487 L24.7869128,28.392487 L24.3590604,25.0297927 L23.6887584,20.1994819 L21.0788591,20.1994819 L23.0184564,30.8005181 L26.170302,30.8005181 Z" id="Shape" fill="#FFFFFF" fill-rule="nonzero"></path>
        <g id="ico_noti_live_on" transform="translate(0.000000, 40.000000)">
            <rect id="thumbnail" fill="#F61B54" x="0" y="0" width="32" height="32" rx="16"></rect>
            <g transform="translate(7.000000, 6.500000)" stroke="#FFFFFF">
                <path d="M11,17.8 C11,16.8058875 10.1045695,16 9,16 C7.8954305,16 7,16.8058875 7,17.8" id="Oval" stroke-width="0.92" fill="#FFFFFF" transform="translate(9.000000, 16.900000) scale(1, -1) translate(-9.000000, -16.900000) "></path>
                <path d="M3.67687097,12.5513729 L3.67687097,7.66412903 C3.67687097,4.72369376 6.06056473,2.34 9.001,2.34 C11.9414353,2.34 14.325129,4.72369376 14.325129,7.66412903 L14.325129,12.5513729 L14.325129,12.5513729 L15.3687185,13.6404711 C15.5592282,13.8392885 15.5524934,14.1549004 15.353676,14.3454101 C15.2608592,14.4343485 15.1372773,14.484 15.0087277,14.484 L2.99327225,14.484 C2.71791377,14.484 2.49469161,14.2607778 2.49469161,13.9854194 C2.49469161,13.8568698 2.54434312,13.7332879 2.63328151,13.6404711 L3.67687097,12.5513729 L3.67687097,12.5513729 Z" id="Rectangle" stroke-width="0.92" fill="#FFFFFF" stroke-linejoin="round"></path>
                <g id="Group" stroke-linecap="round" stroke-linejoin="round" stroke-width="0.968433074">
                    <path d="M15.5224431,0.173019943 C16.1777934,0.885921112 16.5946368,1.95700092 16.5946368,3.15501421 C16.5946368,4.31595287 16.2029248,5.35781284 15.5821302,6.07008562" id="Stroke-7" transform="translate(16.058540, 3.121553) rotate(-30.000000) translate(-16.058540, -3.121553) "></path>
                    <path d="M1.48102341,0.136052886 C2.13637376,0.848954054 2.55321717,1.92003386 2.55321717,3.11804715 C2.55321717,4.27898581 2.16150518,5.32084578 1.54071056,6.03311857" id="Stroke-7-Copy" transform="translate(2.017120, 3.084586) scale(-1, 1) rotate(-32.000000) translate(-2.017120, -3.084586) "></path>
                </g>
            </g>
        </g>
        <g id="ico_noti_live_off" transform="translate(40.000000, 40.000000)">
            <rect id="thumbnail" stroke="#E8E8E8" fill="#FFFFFF" x="0.5" y="0.5" width="31" height="31" rx="15.5"></rect>
            <g id="ic_alarm_off" transform="translate(8.500000, 8.000000)" stroke="#444444" stroke-linejoin="round">
                <path d="M9.5,15.7 C9.5,14.7611159 8.6045695,14 7.5,14 C6.3954305,14 5.5,14.7611159 5.5,15.7" id="Oval" transform="translate(7.500000, 14.850000) scale(1, -1) translate(-7.500000, -14.850000) "></path>
                <path d="M2.17687097,10.5513729 L2.17687097,5.66412903 C2.17687097,2.72369376 4.56056473,0.34 7.501,0.34 C10.4414353,0.34 12.825129,2.72369376 12.825129,5.66412903 L12.825129,10.5513729 L12.825129,10.5513729 L13.8687185,11.6404711 C14.0592282,11.8392885 14.0524934,12.1549004 13.853676,12.3454101 C13.7608592,12.4343485 13.6372773,12.484 13.5087277,12.484 L1.49327225,12.484 C1.21791377,12.484 0.994691609,12.2607778 0.994691609,11.9854194 C0.994691609,11.8568698 1.04434312,11.7332879 1.13328151,11.6404711 L2.17687097,10.5513729 L2.17687097,10.5513729 Z" id="Rectangle"></path>
            </g>
        </g>
        <path d="M43.8254934,21.9556907 L48.0482177,27.8675047 C48.1766213,28.0472698 48.1349846,28.2970898 47.9552195,28.4254934 C47.8873792,28.4739507 47.8060935,28.5 47.7227243,28.5 L39.2772757,28.5 C39.0563618,28.5 38.8772757,28.3209139 38.8772757,28.1 C38.8772757,28.0166308 38.903325,27.935345 38.9517823,27.8675047 L43.1745066,21.9556907 C43.3029102,21.7759257 43.5527302,21.734289 43.7324953,21.8626926 C43.7684135,21.8883485 43.7998375,21.9197725 43.8254934,21.9556907 Z" id="ico_play_cnt" fill="#777777" transform="translate(43.500000, 25.000000) rotate(90.000000) translate(-43.500000, -25.000000) "></path>
        <g id="ico/alarm_banner" transform="translate(50.000000, 0.000000)">
            <rect id="Rectangle" fill-opacity="0" fill="#FFFFFF" x="0" y="0" width="12" height="14"></rect>
            <path d="M7.68982114,13.5 C7.68982114,12.6640709 6.93288384,11.9864166 5.99915437,11.9864166 C5.06542489,11.9864166 4.30848759,12.6640709 4.30848759,13.5" id="Oval" stroke="#444444" stroke-width="0.7912" fill="#444444" stroke-linejoin="round" transform="translate(5.999154, 12.743208) scale(1, -1) translate(-5.999154, -12.743208) "></path>
            <path d="M1.49933568,9.08653608 L1.49933568,5.00066402 C1.49933568,2.51501592 3.5143516,0.5 5.9999997,0.5 C8.4856478,0.5 10.5006637,2.51501592 10.5006637,5.00066402 L10.5006637,9.08653608 L10.5006637,9.08653608 L11.3665222,9.98539205 C11.5308112,10.155942 11.5257357,10.4273826 11.3551857,10.5916716 C11.2752836,10.6686406 11.1686582,10.7116429 11.0577142,10.7116429 L0.942285232,10.7116429 C0.705476933,10.7116429 0.513505877,10.5196719 0.513505877,10.2828636 C0.513505877,10.1719196 0.556508266,10.0652942 0.633477179,9.98539205 L1.49933568,9.08653608 L1.49933568,9.08653608 Z" id="Combined-Shape" stroke="#444444" stroke-width="0.7912" fill="#444444" stroke-linejoin="round"></path>
        </g>
        <g id="icon/down_line_24-2" transform="translate(70.000000, 0.000000)" fill="#4684E9" fill-rule="nonzero">
            <g id="icon/down_line_24">
                <path d="M7.89644661,1.14644661 C8.09170876,0.951184464 8.40829124,0.951184464 8.60355339,1.14644661 C8.77711974,1.32001296 8.79640489,1.58943736 8.66140884,1.7843055 L8.60355339,1.85355339 L4.457,6 L8.60355339,10.1464466 C8.77711974,10.320013 8.79640489,10.5894374 8.66140884,10.7843055 L8.60355339,10.8535534 C8.42998704,11.0271197 8.16056264,11.0464049 7.9656945,10.9114088 L7.89644661,10.8535534 L3.39644661,6.35355339 C3.22288026,6.17998704 3.20359511,5.91056264 3.33859116,5.7156945 L3.39644661,5.64644661 L7.89644661,1.14644661 Z" id="Path" transform="translate(6.000000, 6.000000) scale(-1, 1) translate(-6.000000, -6.000000) "></path>
            </g>
        </g>
        <g id="text-now" transform="translate(0.000000, 80.000000)" fill="#F30545" fill-rule="nonzero">
            <path d="M3.74,16.676 L3.74,11.242 C3.74,9.262 3.41,7.018 3.234,5.192 L3.344,5.192 L4.95,8.778 L8.998,16.676 L13.002,16.676 L13.002,0.308 L9.262,0.308 L9.262,5.72 C9.262,7.678 9.57,10.032 9.79,11.77 L9.68,11.77 L8.074,8.14 L4.004,0.308 L0,0.308 L0,16.676 L3.74,16.676 Z M23.062,16.984 C27.528,16.984 30.564,13.772 30.564,8.404 C30.564,3.058 27.528,0 23.062,0 C18.596,0 15.56,3.036 15.56,8.404 C15.56,13.772 18.596,16.984 23.062,16.984 L23.062,16.984 Z M23.062,13.596 C20.906,13.596 19.586,11.594 19.586,8.404 C19.586,5.236 20.906,3.366 23.062,3.366 C25.218,3.366 26.56,5.236 26.56,8.404 C26.56,11.594 25.218,13.596 23.062,13.596 Z M39.37,16.676 L40.8,9.548 C41.042,8.294 41.24,6.974 41.438,5.742 L41.548,5.742 C41.702,6.974 41.922,8.294 42.186,9.548 L43.66,16.676 L48.61,16.676 L51.448,0.308 L47.708,0.308 L46.652,7.766 C46.454,9.46 46.234,11.198 46.036,12.958 L45.926,12.958 C45.596,11.198 45.31,9.438 44.98,7.766 L43.264,0.308 L39.964,0.308 L38.292,7.766 C37.962,9.46 37.632,11.22 37.324,12.958 L37.236,12.958 L36.576,7.766 L35.542,0.308 L31.516,0.308 L34.508,16.676 L39.37,16.676 L39.37,16.676 Z" id="Shape"></path>
        </g>
    </g>
</svg>