<?xml version="1.0" encoding="UTF-8"?>
<svg width="460px" height="340px" viewBox="0 0 460 340" version="1.1" xmlns="http://www.w3.org/2000/svg" xmlns:xlink="http://www.w3.org/1999/xlink">
    <!-- Generator: Sketch 61.2 (89653) - https://sketch.com -->
    <title>ico_layermart</title>
    <desc>Created with Sketch.</desc>
    <defs>
        <polygon id="path-1" points="0 0.0385615385 71.2682308 0.0385615385 71.2682308 71.3074846 0 71.3074846"></polygon>
        <path d="M0.0724203297,1.6942 L0.0724203297,4.91390769 C0.0724203297,5.58007692 0.582484203,6.12121538 1.2117919,6.12121538 L1.2117919,6.12121538 C1.8417239,6.12121538 2.35116346,5.58007692 2.35116346,4.91390769 L2.35116346,4.91390769 L2.35116346,1.6942 C2.35116346,1.02670769 1.8417239,0.485569231 1.2117919,0.485569231 L1.2117919,0.485569231 C0.582484203,0.485569231 0.0724203297,1.02670769 0.0724203297,1.6942 L0.0724203297,1.6942 Z" id="path-3"></path>
        <path d="M2.22540895,1.19150427 L0.474478022,3.6722735 C0.466629513,3.6825641 0.459494505,3.69358974 0.452359498,3.7031453 L0.452359498,3.7031453 C0.0171240188,4.35659829 0.176948195,5.25041026 0.811250392,5.69952137 L0.811250392,5.69952137 C1.46767111,6.16333333 2.3638281,6.00603419 2.83331162,5.3422906 L2.83331162,5.3422906 L4.58352904,2.86152137 C4.59137755,2.85123077 4.59851256,2.84167521 4.60564757,2.82991453 L4.60564757,2.82991453 C5.04159655,2.17719658 4.88105887,1.28338462 4.24675667,0.834273504 L4.24675667,0.834273504 C3.99203689,0.654188034 3.70164207,0.567452991 3.41481476,0.567452991 L3.41481476,0.567452991 C2.96031476,0.568188034 2.51223626,0.785025641 2.22540895,1.19150427 L2.22540895,1.19150427 Z" id="path-5"></path>
        <path d="M1.13937157,0.834273504 C0.584357143,1.28338462 0.443262363,2.17719658 0.82471772,2.82991453 L0.82471772,2.82991453 C0.830960852,2.84167521 0.837203984,2.85123077 0.843447115,2.86152137 L0.843447115,2.86152137 L2.37613599,5.3422906 C2.78630975,6.00603419 3.5698228,6.16333333 4.14419093,5.69952137 L4.14419093,5.69952137 C4.69920536,5.25041026 4.83967582,4.35659829 4.45822047,3.7031453 L4.45822047,3.7031453 C4.45197734,3.69358974 4.4457342,3.6825641 4.44011538,3.6722735 L4.44011538,3.6722735 L2.90742651,1.19150427 C2.65645261,0.785025641 2.26438393,0.568188034 1.86669643,0.567452991 L1.86669643,0.567452991 C1.61572253,0.567452991 1.36162706,0.654188034 1.13937157,0.834273504 L1.13937157,0.834273504 Z" id="path-7"></path>
        <path d="M24.9215083,2.36867663 L23.8742733,5.35430148 C24.5086561,3.54795799 23.5661445,1.51910858 21.7818172,0.845522485 L21.7818172,0.845522485 C19.9968185,0.171936391 18.0178128,1.09904438 17.3847727,2.90471361 L17.3847727,2.90471361 L11.7209766,19.0512263 L10.850966,21.5331787 C10.7012651,21.9572885 10.1481102,22.0402225 9.87287531,21.6794932 L9.87287531,21.6794932 L7.69919133,16.996755 C6.76540677,14.9861107 4.39704449,14.0920414 2.43549273,15.010384 L2.43549273,15.010384 C0.474612283,15.9287266 -0.365189649,18.3263964 0.567923609,20.3370408 L0.567923609,20.3370408 L6.67746588,33.7534734 C8.3798941,37.4908985 11.3349765,40.5574346 15.0667582,42.145992 L15.0667582,42.145992 C15.2775479,42.2363429 15.491694,42.3212997 15.7065114,42.4028852 L15.7065114,42.4028852 C24.1038594,45.5719089 33.3275833,41.2512485 36.3088466,32.752871 L36.3088466,32.752871 L37.6803217,28.8462065 L39.1061725,24.7810908 L41.2496477,18.6702692 C41.8826879,16.8652743 40.9408477,14.8357506 39.155849,14.1621645 L39.155849,14.1621645 C37.3721929,13.4892527 35.3931873,14.4156864 34.7601471,16.2213556 L34.7601471,16.2213556 L36.8539459,10.2514544 C37.4876573,8.44511095 36.5458171,6.4169358 34.7614897,5.7433497 L34.7614897,5.7433497 C32.9758197,5.07043787 30.9981567,5.9968716 30.3637739,7.80254083 L30.3637739,7.80254083 L31.411009,4.81691598 C32.0447204,3.01124675 31.1028802,0.983071598 29.3185528,0.309485503 L29.3185528,0.309485503 C28.9231545,0.160473964 28.5183579,0.0896766272 28.1209456,0.0896766272 L28.1209456,0.0896766272 C26.7232896,0.0896766272 25.4149171,0.962843787 24.9215083,2.36867663 L24.9215083,2.36867663 Z" id="path-9"></path>
        <polygon id="path-11" points="0 0.404598015 4.40294293 0.404598015 4.40294293 10.5761613 0 10.5761613"></polygon>
        <polygon id="path-13" points="0.503754342 0.112622829 10.8347717 0.112622829 10.8347717 5.35980149 0.503754342 5.35980149"></polygon>
        <polygon id="path-15" points="0.457459057 0.0669975186 4.60996526 0.0669975186 4.60996526 6.17368734 0.457459057 6.17368734"></polygon>
        <path d="M0.0859702381,2.01118633 L0.0859702381,5.83330421 C0.0859702381,6.6241143 0.691467518,7.26650026 1.43851924,7.26650026 L1.43851924,7.26650026 C2.18631209,7.26650026 2.79106825,6.6241143 2.79106825,5.83330421 L2.79106825,5.83330421 L2.79106825,2.01118633 C2.79106825,1.21880562 2.18631209,0.576419668 1.43851924,0.576419668 L1.43851924,0.576419668 C0.691467518,0.576419668 0.0859702381,1.21880562 0.0859702381,2.01118633 L0.0859702381,2.01118633 Z" id="path-17"></path>
        <path d="M2.64178495,1.41443579 L0.563253284,4.35935916 C0.553936312,4.37157514 0.545466338,4.38466369 0.536996364,4.3960071 L0.536996364,4.3960071 C0.0203279381,5.17172173 0.21005536,6.23276671 0.963036066,6.76590691 L0.963036066,6.76590691 C1.74227369,7.31649851 2.80610245,7.12976855 3.36342675,6.34183795 L3.36342675,6.34183795 L5.44111142,3.39691457 C5.4504284,3.3846986 5.45889837,3.37335519 5.46736834,3.35939407 L5.46736834,3.35939407 C5.98488377,2.58455201 5.79430935,1.52350702 5.04132864,0.990366823 L5.04132864,0.990366823 C4.73895056,0.7765872 4.39422261,0.673623953 4.05372965,0.673623953 L4.05372965,0.673623953 C3.51419229,0.674496523 2.98227791,0.93190464 2.64178495,1.41443579 L2.64178495,1.41443579 Z" id="path-19"></path>
        <path d="M1.352549,0.990366823 C0.693690887,1.52350702 0.526197147,2.58455201 0.979023142,3.35939407 L0.979023142,3.35939407 C0.98643437,3.37335519 0.993845597,3.3846986 1.00125682,3.39691457 L1.00125682,3.39691457 L2.82071316,6.34183795 C3.3076308,7.12976855 4.23773984,7.31649851 4.91957276,6.76590691 L4.91957276,6.76590691 C5.57843088,6.23276671 5.7451835,5.17172173 5.2923575,4.3960071 L5.2923575,4.3960071 C5.28494627,4.38466369 5.27753505,4.37157514 5.27086494,4.35935916 L5.27086494,4.35935916 L3.45140861,1.41443579 C3.15347727,0.93190464 2.68805219,0.674496523 2.215957,0.673623953 L2.215957,0.673623953 C1.91802566,0.673623953 1.6163887,0.7765872 1.352549,0.990366823 L1.352549,0.990366823 Z" id="path-21"></path>
        <path d="M29.5843448,2.81185814 L28.3411712,6.35609607 C29.0942475,4.2117841 27.9753913,1.80333515 25.8572146,1.0037205 L25.8572146,1.0037205 C23.7382411,0.204105843 21.3889617,1.30467656 20.6374792,3.44818812 L20.6374792,3.44818812 L13.9139818,22.6157278 L12.8811914,25.5620557 C12.7034813,26.0655168 12.0468306,26.1639678 11.7200991,25.7357458 L11.7200991,25.7357458 L9.13971691,20.1768631 C8.03122043,17.7900254 5.21973544,16.728675 2.8911756,17.8188403 L2.8911756,17.8188403 C0.563412665,18.9090056 -0.433516959,21.7552816 0.674182624,24.1421193 L0.674182624,24.1421193 L7.92682572,40.0687784 C9.94777978,44.5054792 13.4557608,48.1457669 17.8857622,50.0315448 L17.8857622,50.0315448 C18.1359907,50.1388004 18.3902038,50.2396527 18.6452138,50.3365029 L18.6452138,50.3365029 C28.6137131,54.0984538 39.5632039,48.969394 43.1022643,38.8809625 L43.1022643,38.8809625 L44.7303436,34.2433575 L46.4229723,29.4176551 L48.9674937,22.1634933 C49.7189762,20.0207822 48.6009169,17.6115328 46.4819433,16.8119181 L46.4819433,16.8119181 C44.3645636,16.0131039 42.0152842,17.1128742 41.2638017,19.2563858 L41.2638017,19.2563858 L43.7493521,12.1695107 C44.5016315,10.0251988 43.3835721,7.61755022 41.2653955,6.81793557 L41.2653955,6.81793557 C39.1456251,6.01912133 36.7979395,7.11889163 36.0448632,9.26240319 L36.0448632,9.26240319 L37.2880368,5.71816526 C38.0403162,3.5746537 36.9222569,1.16700517 34.8040803,0.367390517 L34.8040803,0.367390517 C34.3347025,0.190498787 33.8541681,0.106455204 33.3823996,0.106455204 L33.3823996,0.106455204 C31.723241,0.106455204 30.1700709,1.14299272 29.5843448,2.81185814 L29.5843448,2.81185814 Z" id="path-23"></path>
        <path d="M15.0597082,0.774801788 C12.9334624,1.57441644 11.8111437,3.98206497 12.566289,6.12637695 L12.566289,6.12637695 L13.8141985,9.66981446 C13.0574534,7.52630291 10.7016242,6.42573218 8.57377844,7.22534684 L8.57377844,7.22534684 C6.44753258,8.02416108 5.32601389,10.43261 6.0803592,12.576922 L6.0803592,12.576922 L8.57537832,19.6645974 C7.82103301,17.5202855 5.46280397,16.4205152 3.33735806,17.2193294 L3.33735806,17.2193294 C1.21031226,18.0189441 0.0879936208,20.427393 0.842338934,22.571705 L0.842338934,22.571705 L3.39655376,29.8250663 L5.09563059,34.6507688 L6.72991211,39.2883737 C10.2824546,49.3776057 21.2736577,54.505865 31.2801323,50.7431138 L31.2801323,50.7431138 C31.5361138,50.6478644 31.7904953,50.5462117 32.0424771,50.4389561 L32.0424771,50.4389561 C36.4893547,48.5523777 40.0106994,44.9128904 42.0393523,40.4761897 L42.0393523,40.4761897 L49.3196245,24.5495306 C50.4315439,22.1626929 49.4308165,19.3172173 47.0941859,18.2262516 L47.0941859,18.2262516 C44.7567553,17.1352858 41.9345599,18.1966362 40.8218406,20.5842744 L40.8218406,20.5842744 L38.2316284,26.143157 C37.9036521,26.5721795 37.2444999,26.4721276 37.0661129,25.9686665 L37.0661129,25.9686665 L36.029388,23.0223387 L29.2802773,3.85479898 C28.525932,1.71208784 26.1677029,0.611517114 24.0414571,1.41033135 L24.0414571,1.41033135 C21.9144113,2.20994601 20.7912927,4.61999579 21.5472379,6.76270693 L21.5472379,6.76270693 L20.2993284,3.218469 C19.711371,1.55040399 18.152284,0.513866475 16.4868048,0.513866475 L16.4868048,0.513866475 C16.0132391,0.513866475 15.5308741,0.597109642 15.0597082,0.774801788 L15.0597082,0.774801788 Z" id="path-25"></path>
        <polygon id="path-27" points="0 0.404598015 4.40294293 0.404598015 4.40294293 10.5761613 0 10.5761613"></polygon>
        <polygon id="path-29" points="0.503754342 0.112622829 10.8347717 0.112622829 10.8347717 5.35980149 0.503754342 5.35980149"></polygon>
        <polygon id="path-31" points="0.457459057 0.0669975186 4.60996526 0.0669975186 4.60996526 6.17368734 0.457459057 6.17368734"></polygon>
        <polygon id="path-33" points="0 0.0385615385 71.2682308 0.0385615385 71.2682308 71.3074846 0 71.3074846"></polygon>
    </defs>
    <g id="ico_layermart" stroke="none" stroke-width="1" fill="none" fill-rule="evenodd">
        <g id="yellow" transform="translate(340.000000, 170.000000)">
            <path d="M96.8601915,64.0668896 C95.2362517,69.0399599 97.1679891,75.8608702 94.1380301,80.0003009 C91.0785226,84.1807404 83.9357729,84.447603 79.7312585,87.4902039 C75.5679891,90.5022013 73.123461,97.1909044 68.121751,98.8055456 C63.2961012,100.363264 57.3851573,96.4325495 52.0374829,96.4325495 C46.6885773,96.4325495 40.7788646,100.363264 35.9525992,98.8055456 C30.9515048,97.1902924 28.5057456,90.5022013 24.3424761,87.4895918 C20.1379617,84.4469909 12.9958276,84.1807404 9.93570451,79.9996888 C6.90574555,75.8608702 8.8380985,69.0393479 7.21415869,64.0668896 C5.64685363,59.2682593 0,54.9029746 0,49.5853088 C0,44.2676429 5.64685363,39.9023583 7.21415869,35.1037279 C8.8380985,30.1312697 6.90636115,23.3097473 9.93570451,19.1703166 C12.9964432,14.9898772 20.1379617,14.7236266 24.3430917,11.6810257 C28.5063611,8.6684162 30.9515048,1.98032517 35.9532148,0.365071927 C40.7788646,-1.19264672 46.6891929,2.73868014 52.0374829,2.73868014 C57.3851573,2.73868014 63.2961012,-1.19264672 68.121751,0.365683997 C73.123461,1.98032517 75.5686047,8.6684162 79.7318741,11.6810257 C83.9363885,14.7236266 91.0791382,14.9904892 94.1386457,19.1709287 C97.1686047,23.3103594 95.2368673,30.1312697 96.8601915,35.10434 C98.4274966,39.9023583 104.074966,44.2676429 104.074966,49.5853088 C104.074966,54.9029746 98.426881,59.2688713 96.8601915,64.0668896 Z" id="Fill-1" fill="#FFEB00"></path>
            <g id="ic_talkdeal" transform="translate(16.744186, 19.534884)">
                <g id="Group" transform="translate(25.149488, 0.000000)" fill="#222222">
                    <path d="M8.50528671,2.14292544 L11.5688982,2.14292544 C12.2063678,2.14292544 12.723139,2.65969663 12.723139,3.2971662 C12.723139,3.93463577 12.2063678,4.45140697 11.5688982,4.45140697 L8.50528671,4.45140697 C7.86781714,4.45140697 7.35104595,3.93463577 7.35104595,3.2971662 C7.35104595,2.65969663 7.86781714,2.14292544 8.50528671,2.14292544 Z" id="Rectangle" transform="translate(10.037092, 3.297166) rotate(90.000000) translate(-10.037092, -3.297166) "></path>
                    <path d="M16.0460278,4.18085949 L18.6775989,4.23151414 C19.3831756,4.24509566 19.9500449,4.8172866 19.9570331,5.52295938 C19.9637639,6.20263055 19.4182379,6.75906928 18.7385668,6.76580005 C18.7266091,6.76591847 18.7146503,6.76586259 18.7026942,6.76563245 L16.0711231,6.7149778 C15.3655465,6.70139628 14.7986771,6.12920534 14.7916889,5.42353256 C14.7849581,4.74386139 15.3304841,4.18742266 16.0101553,4.18069189 C16.022113,4.18057347 16.0340717,4.18062934 16.0460278,4.18085949 Z" id="Rectangle" transform="translate(17.374361, 5.473246) rotate(125.000000) translate(-17.374361, -5.473246) "></path>
                    <path d="M1.30414574,4.18085949 L3.93571681,4.23151414 C4.64129349,4.24509566 5.20816282,4.8172866 5.21515108,5.52295938 C5.22188185,6.20263055 4.67635587,6.75906928 3.99668469,6.76580005 C3.98472699,6.76591847 3.97276821,6.76586259 3.96081214,6.76563245 L1.32924107,6.7149778 C0.623664394,6.70139628 0.0567950639,6.12920534 0.0498067989,5.42353256 C0.0430760272,4.74386139 0.588602013,4.18742266 1.26827319,4.18069189 C1.28023089,4.18057347 1.29218967,4.18062934 1.30414574,4.18085949 Z" id="Rectangle" transform="translate(2.632479, 5.473246) scale(-1, 1) rotate(125.000000) translate(-2.632479, -5.473246) "></path>
                </g>
                <g id="Group-13" transform="translate(0.000000, 9.365960)">
                    <path d="M38.7552261,39.8042314 L38.7552261,39.8042314 C38.9068237,39.6497472 39.0554107,39.4921948 39.1994794,39.3323436 C41.7572605,36.4995912 43.0683269,32.7237095 43.0447088,28.877786 L42.9568051,15.0726956 C42.9589303,12.9965418 41.2940805,11.299085 39.2568035,11.3011668 C37.218773,11.3032495 35.5504445,13.0041124 35.5483193,15.0802662 L35.5433702,19.9151554 C35.4510264,20.3306337 34.9460752,20.4801044 34.6502842,20.1801939 L32.9267281,18.422908 L21.7093091,6.99019928 C20.45465,5.7115462 18.3992906,5.71364653 17.1420112,6.99486651 C15.8847317,8.27608649 15.8825869,10.3714355 17.1372459,11.6500886 L15.0629565,9.53613063 C13.8082975,8.25747755 11.7529381,8.25957788 10.4956586,9.54079786 C9.23837916,10.8220178 9.23623507,12.916599 10.4908941,14.1952521 L12.5651835,16.3092101 C11.309771,15.0305578 9.25516504,15.0326573 7.99713216,16.3138781 C6.73985271,17.595098 6.73770863,19.6896792 7.9923677,20.9683323 L12.1401938,25.1954812 C10.8855348,23.9168281 8.83017534,23.9189284 7.57289589,25.2001484 C6.31561644,26.4813684 6.31347157,28.5767174 7.56813064,29.8553705 L11.813048,34.1814673 L14.6377243,37.0601626 L17.3525153,39.8261024 C23.2570147,45.843519 32.8391485,45.8337272 38.7552261,39.8042314" id="Fill-1" fill="#FFFFFF" transform="translate(24.836622, 25.182673) scale(-1, 1) rotate(25.000000) translate(-24.836622, -25.182673) "></path>
                    <path d="M42.6198633,30.8562546 L35.5502696,23.6514626 C34.2956113,22.3720417 34.2977546,20.2782283 35.555034,18.9970083 C36.8123135,17.7157883 38.8676729,17.713688 40.122332,18.9923411 L44.0932873,23.0384681" id="Stroke-3" stroke="#111111" stroke-width="2.69709039" stroke-linecap="round" transform="translate(39.351980, 24.445488) scale(-1, 1) rotate(25.000000) translate(-39.351980, -24.445488) "></path>
                    <path d="M35.8009876,24.8771235 L27.6822069,16.6030798 C26.4275479,15.3244267 26.429692,13.2298455 27.6869714,11.9486255 C28.9442509,10.6674055 30.9996103,10.6653052 32.2542693,11.9439583 L40.37305,20.218002" id="Stroke-5" stroke="#111111" stroke-width="2.69709039" stroke-linecap="round" transform="translate(33.557830, 17.931731) scale(-1, 1) rotate(25.000000) translate(-33.557830, -17.931731) "></path>
                    <path d="M43.8502412,38.6746938 L43.8502412,38.6746938 C37.9341637,44.7041895 28.3520299,44.7139813 22.4475305,38.6965647 L16.9080631,33.0519296" id="Stroke-7" stroke="#111111" stroke-width="2.69709039" transform="translate(30.379152, 38.127579) scale(-1, 1) rotate(25.000000) translate(-30.379152, -38.127579) "></path>
                    <path d="M28.6774657,42.0384171 C28.8290633,41.8839329 28.9776503,41.7263805 29.1217191,41.5665293 C31.6795002,38.7337769 32.9905665,34.9578952 32.9666264,31.1119717 L32.8790447,17.3068813 C32.8811699,15.2307275 31.2163202,13.5332707 29.1790431,13.5353525 C27.1410126,13.5374352 25.4726842,15.2382981 25.4705589,17.3144519 L25.4656098,22.1493411 C25.373266,22.5648194 24.8683149,22.71429 24.5725238,22.4143796 L22.8489678,20.6570937 L11.6315487,9.22438497 C10.3768897,7.94573188 8.32153025,7.94783221 7.0642508,9.22905219 C5.80697135,10.5102722 5.80482648,12.6056212 7.05948555,13.8842743 L15.1782663,22.1583179" id="Stroke-9" stroke="#111111" stroke-width="2.69709039" transform="translate(19.543419, 25.152591) scale(-1, 1) rotate(25.000000) translate(-19.543419, -25.152591) "></path>
                    <path d="M31.2185013,22.2479835 L21.0254312,11.8599819 C19.7707722,10.5813288 19.7729163,8.4867476 21.0301957,7.20552762 C22.2882286,5.92430687 24.343588,5.92220654 25.5982471,7.20085962 L35.7905637,17.588862" id="Stroke-11" stroke="#111111" stroke-width="2.69709039" stroke-linecap="round" transform="translate(27.938199, 14.245611) scale(-1, 1) rotate(25.000000) translate(-27.938199, -14.245611) "></path>
                </g>
                <g id="Group-13" transform="translate(19.481879, 9.056223)">
                    <path d="M39.0990826,39.8042314 L39.0990826,39.8042314 C39.2506802,39.6497472 39.3992672,39.4921948 39.5433359,39.3323436 C42.1011171,36.4995912 43.4121834,32.7237095 43.3885653,28.877786 L43.3006616,15.0726956 C43.3027868,12.9965418 41.637937,11.299085 39.60066,11.3011668 C37.5626295,11.3032495 35.8943011,13.0041124 35.8921758,15.0802662 L35.8872267,19.9151554 C35.7948829,20.3306337 35.2899318,20.4801044 34.9941407,20.1801939 L33.2705847,18.422908 L22.0531656,6.99019928 C20.7985066,5.7115462 18.7431471,5.71364653 17.4858677,6.99486651 C16.2285882,8.27608649 16.2264434,10.3714355 17.4811024,11.6500886 L15.4068131,9.53613063 C14.152154,8.25747755 12.0967946,8.25957788 10.8395151,9.54079786 C9.58223567,10.8220178 9.58009158,12.916599 10.8347507,14.1952521 L12.90904,16.3092101 C11.6536275,15.0305578 9.59902155,15.0326573 8.34098867,16.3138781 C7.08370923,17.595098 7.08156514,19.6896792 8.33622421,20.9683323 L12.4840503,25.1954812 C11.2293913,23.9168281 9.17403185,23.9189284 7.9167524,25.2001484 C6.65947296,26.4813684 6.65732808,28.5767174 7.91198716,29.8553705 L12.1569045,34.1814673 L14.9815808,37.0601626 L17.6963718,39.8261024 C23.6008712,45.843519 33.183005,45.8337272 39.0990826,39.8042314" id="Fill-1" fill="#FFFFFF" transform="translate(25.180478, 25.182673) rotate(25.000000) translate(-25.180478, -25.182673) "></path>
                    <path d="M13.9330024,30.8562546 L6.86340872,23.6514626 C5.60875043,22.3720417 5.61089373,20.2782283 6.86817318,18.9970083 C8.12545263,17.7157883 10.180812,17.713688 11.4354711,18.9923411 L15.4064265,23.0384681" id="Stroke-3" stroke="#111111" stroke-width="2.69709039" stroke-linecap="round" transform="translate(10.665119, 24.445488) rotate(25.000000) translate(-10.665119, -24.445488) "></path>
                    <path d="M18.702427,24.8771235 L10.5836463,16.6030798 C9.32898724,15.3244267 9.33113132,13.2298455 10.5884108,11.9486255 C11.8456902,10.6674055 13.9010496,10.6653052 15.1557087,11.9439583 L23.2744894,20.218002" id="Stroke-5" stroke="#111111" stroke-width="2.69709039" stroke-linecap="round" transform="translate(16.459270, 17.931731) rotate(25.000000) translate(-16.459270, -17.931731) "></path>
                    <path d="M33.1090367,38.6746938 L33.1090367,38.6746938 C27.1929592,44.7041895 17.6108253,44.7139813 11.706326,38.6965647 L6.16685862,33.0519296" id="Stroke-7" stroke="#111111" stroke-width="2.69709039" transform="translate(19.637948, 38.127579) rotate(25.000000) translate(-19.637948, -38.127579) "></path>
                    <path d="M39.6077277,42.0384171 C39.7593253,41.8839329 39.9079123,41.7263805 40.051981,41.5665293 C42.6097621,38.7337769 43.9208285,34.9578952 43.8968884,31.1119717 L43.8093067,17.3068813 C43.8114319,15.2307275 42.1465821,13.5332707 40.1093051,13.5353525 C38.0712746,13.5374352 36.4029462,15.2382981 36.4008209,17.3144519 L36.3958718,22.1493411 C36.303528,22.5648194 35.7985768,22.71429 35.5027858,22.4143796 L33.7792297,20.6570937 L22.5618107,9.22438497 C21.3071516,7.94573188 19.2517922,7.94783221 17.9945128,9.22905219 C16.7372333,10.5102722 16.7350885,12.6056212 17.9897475,13.8842743 L26.1085282,22.1583179" id="Stroke-9" stroke="#111111" stroke-width="2.69709039" transform="translate(30.473681, 25.152591) rotate(25.000000) translate(-30.473681, -25.152591) "></path>
                    <path d="M25.3592027,22.2479835 L15.1661326,11.8599819 C13.9114736,10.5813288 13.9136176,8.4867476 15.1708971,7.20552762 C16.42893,5.92430687 18.4842894,5.92220654 19.7389485,7.20085962 L29.9312651,17.588862" id="Stroke-11" stroke="#111111" stroke-width="2.69709039" stroke-linecap="round" transform="translate(22.078901, 14.245611) rotate(25.000000) translate(-22.078901, -14.245611) "></path>
                </g>
            </g>
        </g>
        <g id="Group-2" transform="translate(0.000000, 170.000000)">
            <circle id="Oval" fill="#F4F4F4" cx="84" cy="84" r="84"></circle>
            <g id="Group-16" transform="translate(33.500000, 36.000000)">
                <path d="M1.73076923,46.3592077 C1.73076923,65.0840538 16.9096154,80.2635923 35.6344615,80.2635923 C54.3586154,80.2635923 69.5374615,65.0840538 69.5374615,46.3592077 C69.5374615,27.6350538 54.3586154,12.4555154 35.6344615,12.4555154 C16.9096154,12.4555154 1.73076923,27.6350538 1.73076923,46.3592077" id="Fill-1" fill="#FEFEFE"></path>
                <g id="Group-5" transform="translate(0.000000, 10.686462)">
                    <mask id="mask-2" fill="white">
                        <use xlink:href="#path-1"></use>
                    </mask>
                    <g id="Clip-4"></g>
                    <path d="M35.6342538,3.5001 C17.8938692,3.5001 3.46133077,17.9326385 3.46133077,35.6730231 C3.46133077,53.4134077 17.8938692,67.8459462 35.6342538,67.8459462 C53.3746385,67.8459462 67.8071769,53.4134077 67.8071769,35.6730231 C67.8071769,17.9326385 53.3746385,3.5001 35.6342538,3.5001 M35.6342538,71.3074846 C15.9851769,71.3074846 -0.000207692308,55.3221 -0.000207692308,35.6730231 C-0.000207692308,16.0239462 15.9851769,0.0385615385 35.6342538,0.0385615385 C55.2833308,0.0385615385 71.2687154,16.0239462 71.2687154,35.6730231 C71.2687154,55.3221 55.2833308,71.3074846 35.6342538,71.3074846" id="Fill-3" fill="#231F20" mask="url(#mask-2)"></path>
                </g>
                <path d="M1.73076923,41.9579308 C4.04169231,25.4837769 18.1896923,12.8062385 35.3007692,12.8062385 C43.3834615,12.8062385 50.8029231,15.6357 56.6286923,20.3565462 C49.2666923,34.1701615 33.7880769,48.9633923 1.73076923,41.9579308" id="Fill-6" fill="#231F20"></path>
                <path d="M17.5983923,45.1402615 C12.3624692,45.1402615 6.77346923,44.4645692 0.844546154,43.1111077 L1.61508462,39.7361077 C18.3523154,43.5583385 32.1230077,41.7244154 42.5429308,34.2890308 C59.0980846,22.4761846 61.6610077,0.223338462 61.6845462,0.000415384615 L65.1267,0.365261538 C65.0242385,1.33864615 62.4024692,24.3502615 44.5790077,37.0887231 C37.0771615,42.4506462 28.0418538,45.1402615 17.5983923,45.1402615" id="Fill-8" fill="#231F20"></path>
                <path d="M35.9242615,61.9043538 C32.3353385,61.9043538 28.9714154,60.2988923 25.9224923,57.1302 C25.2592615,56.4420462 25.2800308,55.3461231 25.9688769,54.6835846 C26.6570308,54.0217385 27.7536462,54.0425077 28.4154923,54.7306615 C30.7873385,57.1938923 33.3142615,58.4428154 35.9277231,58.4428154 L35.9831077,58.4428154 C40.4464154,58.4123538 43.8934154,54.7881231 43.9273385,54.7514308 C44.5808769,54.0549692 45.6733385,54.0162 46.3718769,54.6655846 C47.0697231,55.3156615 47.1119538,56.4060462 46.4646462,57.1059692 C46.2853385,57.2998154 42.0103385,61.8455077 36.0419538,61.9036615 C36.0024923,61.9043538 35.9637231,61.9043538 35.9242615,61.9043538" id="Fill-10" fill="#231F20"></path>
                <path d="M37.5711923,48.5084769 C37.5711923,49.8750923 38.6788846,50.9827846 40.0448077,50.9827846 C41.4121154,50.9827846 42.5191154,49.8750923 42.5191154,48.5084769 C42.5191154,47.1418615 41.4121154,46.0348615 40.0448077,46.0348615 C38.6788846,46.0348615 37.5711923,47.1418615 37.5711923,48.5084769" id="Fill-12" fill="#231F20"></path>
                <path d="M29.0884154,48.5084769 C29.0884154,49.8750923 30.1968,50.9827846 31.5627231,50.9827846 C32.9293385,50.9827846 34.0363385,49.8750923 34.0363385,48.5084769 C34.0363385,47.1418615 32.9293385,46.0348615 31.5627231,46.0348615 C30.1968,46.0348615 29.0884154,47.1418615 29.0884154,48.5084769" id="Fill-14" fill="#231F20"></path>
            </g>
            <g id="Group-40" transform="translate(93.500000, 58.000000)">
                <g id="Group-5" transform="translate(26.237637, 0.000000)">
                    <mask id="mask-4" fill="white">
                        <use xlink:href="#path-3"></use>
                    </mask>
                    <g id="Clip-4"></g>
                    <polygon id="Fill-3" fill="#3FC299" mask="url(#mask-4)" points="-3.7259011 10.1466769 6.1501092 10.1466769 6.1501092 -3.53856923 -3.7259011 -3.53856923"></polygon>
                </g>
                <g id="Group-8" transform="translate(32.064560, 2.480769)">
                    <mask id="mask-6" fill="white">
                        <use xlink:href="#path-5"></use>
                    </mask>
                    <g id="Clip-7"></g>
                    <polygon id="Fill-6" fill="#3FC299" mask="url(#mask-6)" points="11.4442672 0.566350427 3.11485903 12.8209829 -6.38540392 5.96744444 1.94329074 -6.28718803"></polygon>
                </g>
                <g id="Group-11" transform="translate(16.248626, 2.480769)">
                    <mask id="mask-8" fill="white">
                        <use xlink:href="#path-7"></use>
                    </mask>
                    <g id="Clip-10"></g>
                    <polygon id="Fill-9" fill="#3FC299" mask="url(#mask-8)" points="-5.15882473 0.566350427 2.12940742 12.8209829 10.4421375 5.96744444 3.15390536 -6.28718803"></polygon>
                </g>
                <g id="Group-14" transform="translate(0.832418, 14.884615)">
                    <mask id="mask-10" fill="white">
                        <use xlink:href="#path-9"></use>
                    </mask>
                    <g id="Clip-13"></g>
                    <polygon id="Fill-12" fill="#FEFEFE" mask="url(#mask-10)" points="33.4252581 -10.2666927 -9.03408033 9.61994219 11.6441122 54.1588842 54.1034507 34.2722493"></polygon>
                </g>
                <g id="Group-25" transform="translate(0.000000, 13.230769)" fill="#131313">
                    <path d="M38.8569778,31.4839289 C38.6998905,31.4839289 38.5407979,31.457755 38.384379,31.4020515 C37.6423923,31.1396412 37.2533505,30.3235521 37.5140486,29.5792734 L41.0689005,19.4506401 C41.438557,18.394959 40.8703689,17.1701541 39.8269082,16.7768742 C39.3295766,16.5896301 38.7901321,16.6090928 38.3108488,16.83392 C37.830897,17.058076 37.469262,17.4594094 37.292121,17.963425 L35.2947729,23.6512176 C35.0340748,24.3954963 34.2198948,24.7860916 33.4792449,24.5243525 C32.7379266,24.2619423 32.3488849,23.4451819 32.6095829,22.7015744 L34.6075996,17.0131106 C35.0400909,15.7789099 35.9278012,14.7950392 37.1069586,14.2433737 C38.2861159,13.691037 39.608323,13.6413737 40.8275877,14.101095 C43.3282836,15.0446981 44.6411323,17.8701385 43.753422,20.4002834 L40.1992385,30.5289166 C39.9933539,31.116823 39.4438826,31.4839289 38.8569778,31.4839289" id="Fill-15"></path>
                    <path d="M33.952579,24.6068339 C33.7954917,24.6068339 33.6350621,24.5799889 33.4793118,24.5249565 C32.7379934,24.2625463 32.3489517,23.4464571 32.6096498,22.7021784 L36.6925824,11.0708941 C37.0622388,10.0152129 36.4940508,8.79040803 35.4499216,8.39712821 C34.9499161,8.20787068 34.4118086,8.23001784 33.9338622,8.45350279 C33.4539104,8.67832999 33.0922754,9.0789922 32.9151344,9.5830078 L28.8335388,21.2142921 C28.5728407,21.959913 27.7566553,22.3498372 27.0186793,22.087427 C26.2766925,21.8250167 25.8876508,21.0095987 26.1483488,20.2646488 L30.2299445,8.63336455 C30.6631043,7.39849275 31.5508146,6.4152932 32.729972,5.86295652 C33.9084609,5.31129097 35.2313364,5.2602854 36.4506011,5.72067781 C38.9519655,6.66428094 40.2648141,9.49039242 39.3771038,12.0205373 L35.2948397,23.6518216 C35.0889551,24.2390569 34.5394838,24.6068339 33.952579,24.6068339" id="Fill-17"></path>
                    <path d="M22.6148875,46.0166921 C20.5513622,46.0166921 18.4784785,45.6401904 16.4757827,44.8851737 L17.4764621,42.2093944 C21.1603261,43.5986252 25.1302895,43.4563465 28.653724,41.8053766 C32.1798322,40.1557489 34.8416262,37.19407 36.1491272,33.4686497 L38.9345856,25.5332562 L41.6197755,26.4828994 L38.8343171,34.418293 C37.2701288,38.8745695 34.0815911,42.4187857 29.8576142,44.3959229 C27.5534445,45.4744223 25.0908506,46.0166921 22.6148875,46.0166921" id="Fill-19"></path>
                    <path d="M16.4780554,44.8861133 C16.2440956,44.7981958 16.0134781,44.7055804 15.7841975,44.6082671 C11.8175764,42.919043 8.58893128,39.6969672 6.6905147,35.5326305 L0.607560152,22.179237 C-0.651143519,19.4678881 0.49191717,16.2370876 3.16106415,14.9874511 C4.45452756,14.3827666 5.91309974,14.3297476 7.26806115,14.8398033 C8.61099035,15.3465035 9.68586847,16.3471523 10.2934955,17.6565191 L11.5094179,20.2745815 L17.3056046,3.75884236 C17.7387644,2.52397057 18.6264747,1.54009989 19.8056321,0.988434337 C20.984121,0.436097659 22.306328,0.385092085 23.5262612,0.84615563 C26.0276256,1.78908763 27.3411427,4.61587023 26.4527639,7.14668629 L22.3704998,18.7779706 L19.6853099,17.8283273 L23.767574,6.19637191 C24.1378989,5.14001962 23.5690424,3.91588584 22.5255818,3.52193489 C22.0255763,3.33334849 21.4888057,3.35348227 21.0088539,3.57830948 C20.5295705,3.80313668 20.1679355,4.20447001 19.9907945,4.70848562 L13.4840385,23.2496829 C13.2407204,23.9409427 12.6444571,24.438247 11.9278717,24.5516673 C11.2132917,24.6657588 10.4840056,24.3751612 10.0381451,23.7906105 L9.87838395,23.5255157 L7.71392167,18.8645458 C7.42180616,18.237043 6.90843153,17.7578591 6.26604479,17.5162537 C5.63435336,17.2773329 4.95787534,17.29948 4.36361747,17.5786685 C3.11828293,18.1618769 2.59287609,19.6880174 3.19248161,20.9812771 L9.2807838,34.3440664 C10.8817372,37.8560687 13.5856439,40.5674176 16.8965092,41.976111 C17.0870193,42.0573173 17.2802033,42.1351679 17.4753926,42.2089918 L16.4780554,44.8861133 Z" id="Fill-21"></path>
                    <path d="M27.4899411,22.1701097 C27.3328538,22.1701097 27.1730927,22.1439358 27.0166739,22.0882323 C26.276024,21.8258221 25.8863139,21.0097329 26.1476804,20.2654542 L31.2727367,5.66242408 C31.6430616,4.60674292 31.0742051,3.38260914 30.0307444,2.98798707 C29.5320759,2.80141405 28.9939683,2.82020557 28.5126796,3.04503278 C28.0333963,3.2705311 27.6717613,3.67186444 27.4952888,4.17520892 L22.3715694,18.778239 C22.1108713,19.5231889 21.2946859,19.9137842 20.5560414,19.6507028 C19.8147231,19.3889637 19.4250129,18.5728745 19.6863794,17.8279246 L24.8100988,3.22489454 C25.2432587,1.99136499 26.130969,1.00749431 27.3087894,0.455828763 C28.4872783,-0.0971790412 29.80748,-0.148855741 31.0314239,0.31287893 C33.5327883,1.25581093 34.8463054,4.08192241 33.9579266,6.61206734 L28.8328703,21.2150974 C28.6269857,21.8030038 28.0775144,22.1701097 27.4899411,22.1701097" id="Fill-23"></path>
                </g>
            </g>
        </g>
        <g id="Group-3" transform="translate(290.000000, 0.000000)">
            <circle id="Oval" fill="#F4F4F4" cx="84" cy="84" r="84"></circle>
            <g id="Group-48" transform="translate(45.500000, 36.000000)">
                <path d="M13.9340769,70.5708983 L12.6772035,69.4647692 L10.4636055,71.9791861 L11.7211489,73.0859851 C13.4416452,74.600129 15.3169057,75.9461092 17.2966824,77.0884169 L18.7471787,77.9258859 L20.4214467,75.0235533 L18.9702804,74.1867543 C17.1827866,73.1549926 15.4884194,71.9389876 13.9340769,70.5708983" id="Fill-1" fill="#231F20"></path>
                <path d="M6.20122333,60.1941216 L5.50109926,58.6726079 L2.45740199,60.0721861 L3.15752605,61.5943697 C4.11358065,63.6706228 5.28268734,65.6624591 6.6340273,67.5129305 L7.62157072,68.8649404 L10.3269305,66.8898536 L9.3393871,65.5371737 C8.11936228,63.8662556 7.06348139,62.0687122 6.20122333,60.1941216" id="Fill-3" fill="#231F20"></path>
                <path d="M49.70834,20.0218065 L51.1688859,20.8411861 L52.8076452,17.9194243 L51.3464293,17.1000447 C49.3485633,15.9791762 47.2314417,15.0559504 45.0533524,14.3571663 L43.4581414,13.8446352 L42.4344194,17.0343871 L44.0282903,17.5462481 C45.9939975,18.1773648 47.9054367,19.0101439 49.70834,20.0218065" id="Fill-5" fill="#231F20"></path>
                <path d="M31.1531762,16.2400645 C33.1952605,16.0203127 35.3030025,16.0035633 37.3531266,16.1911563 L39.0206948,16.3419007 L39.3235236,13.0060943 L37.6552854,12.8540099 C35.3894293,12.6489975 33.0579156,12.6670868 30.7974194,12.9082779 L29.131861,13.0864913 L29.4876179,16.4176079 L31.1531762,16.2400645 Z" id="Fill-7" fill="#231F20"></path>
                <g id="Group-11" transform="translate(0.000000, 45.491315)">
                    <mask id="mask-12" fill="white">
                        <use xlink:href="#path-11"></use>
                    </mask>
                    <g id="Clip-10"></g>
                    <path d="M4.05388586,8.23928784 C3.62376179,6.22668238 3.3939603,4.15377916 3.36984119,2.07953598 L3.34974194,0.404598015 L-0.000133995037,0.443456576 L0.0199652605,2.11839454 C0.046764268,4.41506948 0.301354839,6.70973449 0.777037221,8.93807196 L1.12743424,10.5761613 L4.40294293,9.8767072 L4.05388586,8.23928784 Z" id="Fill-9" fill="#231F20" mask="url(#mask-12)"></path>
                </g>
                <path d="M9.2664938,28.9571985 C10.4791489,27.2836005 11.8633176,25.7238983 13.3821514,24.3216402 L14.6122258,23.1853623 L12.33967,20.7238734 L11.1089256,21.8601514 C9.42795782,23.4131538 7.89505459,25.1396799 6.55376427,26.9928313 L5.57091067,28.349531 L8.28431017,30.3138983 L9.2664938,28.9571985 Z" id="Fill-12" fill="#231F20"></path>
                <path d="M4.02768983,40.7870844 C4.45044417,38.7657692 5.07955087,36.7792928 5.89759057,34.8825931 L6.56019603,33.34433 L3.48433995,32.0177792 L2.82106452,33.5553722 C1.91525806,35.6584243 1.2178139,37.8606328 0.74816129,40.1016998 L0.40580397,41.741129 L3.68466253,42.4265136 L4.02768983,40.7870844 Z" id="Fill-14" fill="#231F20"></path>
                <path d="M55.3462481,70.3248834 C53.810665,71.7103921 52.1310372,72.9464963 50.354933,73.9996973 L48.9131464,74.8539156 L50.6215831,77.7361489 L52.0626998,76.8812605 C54.0297469,75.7155037 55.889598,74.3467444 57.590665,72.8125012 L58.834139,71.6902928 L56.5897221,69.2026749 L55.3462481,70.3248834 Z" id="Fill-16" fill="#231F20"></path>
                <path d="M18.8613424,20.2697643 C20.6474963,19.2299628 22.544866,18.3663648 24.4998536,17.7030893 L26.0863548,17.1650993 L25.0103747,13.9927667 L23.4245434,14.5314268 C21.2571737,15.2657196 19.1547916,16.2224442 17.1756849,17.3754715 L15.7285385,18.2176303 L17.414196,21.1125931 L18.8613424,20.2697643 Z" id="Fill-18" fill="#231F20"></path>
                <path d="M62.9567643,59.8558511 C62.1172854,61.7398213 61.0821737,63.5500943 59.8815782,65.2364218 L58.9107841,66.6011613 L61.6395931,68.5440893 L62.6110571,67.1800199 C63.9409578,65.312129 65.0866154,63.3062233 66.015871,61.2192506 L66.6979057,59.6896973 L63.638799,58.3262978 L62.9567643,59.8558511 Z" id="Fill-20" fill="#231F20"></path>
                <path d="M68.9865409,45.3853251 L65.636665,45.3853251 L65.637335,47.196938 C65.637335,49.274531 65.4316526,51.3487742 65.0269876,53.3647295 L64.6973598,55.0068387 L67.9815782,55.6667643 L68.311206,54.0246551 C68.7594194,51.7922978 68.9872109,49.4956228 68.9872109,47.1728189 L68.9865409,45.3853251 Z" id="Fill-22" fill="#231F20"></path>
                <g id="Group-26" transform="translate(22.109181, 76.310174)">
                    <mask id="mask-14" fill="white">
                        <use xlink:href="#path-13"></use>
                    </mask>
                    <g id="Clip-25"></g>
                    <path d="M3.10124814,0.611754342 L1.50201737,0.112622829 L0.503754342,3.31041439 L2.10298511,3.80954591 C4.28442432,4.49024069 6.54693052,4.9545335 8.8261861,5.18902481 L10.4924144,5.35986849 L10.8347717,2.02741191 L9.1692134,1.85589826 C7.11037965,1.64485608 5.06963524,1.22612159 3.10124814,0.611754342" id="Fill-24" fill="#231F20" mask="url(#mask-14)"></path>
                </g>
                <path d="M59.4413375,28.5548114 L60.4449603,29.8961017 L63.126871,27.8881861 L62.1225782,26.5475658 C60.7531489,24.7178635 59.1934467,23.0161266 57.4863499,21.4885831 L56.2381861,20.3717345 L54.0044888,22.868732 L55.2526526,23.9855806 C56.7949355,25.3650596 58.2038933,26.9026526 59.4413375,28.5548114" id="Fill-27" fill="#231F20"></path>
                <path d="M44.1490199,76.8100422 C42.1873325,77.4485285 40.1512779,77.8913821 38.095794,78.1278834 L36.4315757,78.3188263 L36.8141315,81.6465931 L38.4776799,81.4556501 C40.7555955,81.1943598 43.012072,80.703268 45.1854715,79.9951042 L46.7786725,79.4765434 L45.7415509,76.2914814 L44.1490199,76.8100422 Z" id="Fill-29" fill="#231F20"></path>
                <path d="M62.9043722,34.4223201 C63.7525608,36.3036104 64.4138263,38.2800372 64.8707494,40.2966625 L65.2405757,41.9293921 L68.5073747,41.1897395 L68.1382184,39.55567 C67.6317171,37.3213027 66.8980943,35.1311538 65.9587891,33.0455211 L65.2700546,31.5186476 L62.2163077,32.8954467 L62.9043722,34.4223201 Z" id="Fill-31" fill="#231F20"></path>
                <g id="Group-35" transform="translate(6.699752, 0.602978)">
                    <mask id="mask-16" fill="white">
                        <use xlink:href="#path-15"></use>
                    </mask>
                    <g id="Clip-34"></g>
                    <path d="M1.01152854,4.52688834 L1.31636725,6.17368734 L4.60996526,5.56400993 L4.30512655,3.91721092 C4.05187593,2.55046154 3.96410918,1.73912159 3.96343921,1.73041191 L3.78589578,0.0668635236 L0.457459057,0.417930521 L0.632322581,2.08281886 C0.635672457,2.11966749 0.731478908,3.01743424 1.01152854,4.52688834" id="Fill-33" fill="#231F20" mask="url(#mask-16)"></path>
                </g>
                <path d="M9.71531017,12.9360149 C10.2499504,14.5734342 10.852928,16.1920943 11.5088337,17.7477767 L12.1587097,19.2907295 L15.2459553,17.9903077 L14.5954094,16.4466849 C13.9756824,14.9767593 13.4055335,13.446536 12.9003722,11.8968834 L12.3804715,10.3043524 L9.1960794,11.3441538 L9.71531017,12.9360149 Z" id="Fill-36" fill="#231F20"></path>
                <path d="M54.4374268,46.0291042 L54.4702556,42.6792283 L52.7953176,42.6631489 C51.1585682,42.6463995 49.5378983,42.5552829 47.9761861,42.391139 L46.3106278,42.2162754 L45.9602308,45.5473921 L47.6257891,45.7229256 C49.2920174,45.8984591 51.0198834,45.9956055 52.7624888,46.0130248 L54.4374268,46.0291042 Z" id="Fill-38" fill="#231F20"></path>
                <path d="M41.2623648,44.6538462 L42.1849206,41.4332754 L40.5749702,40.9723325 C39.0300074,40.5294789 37.5145236,39.9928288 36.071397,39.3771216 L34.5311241,38.7205459 L33.2166328,41.8010918 L34.7575757,42.4590074 C36.3279975,43.1289826 37.9747965,43.711861 39.6524144,44.1929032 L41.2623648,44.6538462 Z" id="Fill-40" fill="#231F20"></path>
                <path d="M18.0297692,23.2277047 L17.1634913,21.7932878 L14.2959975,23.5251737 L15.1616055,24.9589206 C16.064732,26.4543052 17.0388759,27.8947519 18.0572382,29.2393921 L19.0689007,30.5739826 L21.7387519,28.5513275 L20.7277593,27.216067 C19.7797444,25.9652233 18.871928,24.623263 18.0297692,23.2277047" id="Fill-42" fill="#231F20"></path>
                <path d="M27.6102804,38.503005 L28.9843995,39.4603995 L30.8991886,36.7114913 L29.5243995,35.7534268 C28.2320174,34.8529801 26.9764839,33.8520372 25.7939777,32.778737 L24.5538536,31.6525087 L22.302067,34.1334268 L23.5421911,35.2583151 C24.8312233,36.4280918 26.1993127,37.5194814 27.6102804,38.503005" id="Fill-44" fill="#231F20"></path>
                <path d="M60.4449603,42.2402605 L58.7814119,42.4338834 L59.1686576,45.7616501 L60.832206,45.5680273 C61.614067,45.4769107 62.4066476,45.3723945 63.2106179,45.252469 L64.8674665,45.0059181 L64.3736948,41.6928908 L62.7175161,41.9394417 C61.9483846,42.0540074 61.1913127,42.1531638 60.4449603,42.2402605" id="Fill-46" fill="#231F20"></path>
            </g>
        </g>
        <g id="Group-4" transform="translate(170.000000, 170.000000)">
            <circle id="Oval" fill="#F4F4F4" cx="84" cy="84" r="84"></circle>
            <g id="Group-40" transform="translate(43.000000, 48.000000)">
                <g id="Group-5" transform="translate(41.008792, 0.000000)">
                    <mask id="mask-18" fill="white">
                        <use xlink:href="#path-17"></use>
                    </mask>
                    <g id="Clip-4"></g>
                    <polygon id="Fill-3" fill="#3FC299" mask="url(#mask-18)" points="-4.42302053 12.0451292 7.30080013 12.0451292 7.30080013 -4.2006387 -4.42302053 -4.2006387"></polygon>
                </g>
                <g id="Group-8" transform="translate(47.925937, 2.944923)">
                    <mask id="mask-20" fill="white">
                        <use xlink:href="#path-19"></use>
                    </mask>
                    <g id="Clip-7"></g>
                    <polygon id="Fill-6" fill="#3FC299" mask="url(#mask-20)" points="13.5854998 0.672315099 3.69765194 15.2198003 -7.58011871 7.08395863 2.30688217 -7.46352654"></polygon>
                </g>
                <g id="Group-11" transform="translate(29.150828, 2.944923)">
                    <mask id="mask-22" fill="white">
                        <use xlink:href="#path-21"></use>
                    </mask>
                    <g id="Clip-10"></g>
                    <polygon id="Fill-9" fill="#3FC299" mask="url(#mask-22)" points="-6.12404544 0.672315099 2.52782145 15.2198003 12.3958708 7.08395863 3.74400387 -7.46352654"></polygon>
                </g>
                <g id="Group-14" transform="translate(1.482245, 17.669540)">
                    <mask id="mask-24" fill="white">
                        <use xlink:href="#path-23"></use>
                    </mask>
                    <g id="Clip-13"></g>
                    <polygon id="Fill-12" fill="#FEFEFE" mask="url(#mask-24)" points="39.6791538 -12.1876001 -10.7243648 11.419842 13.822736 64.2920599 64.2262547 40.6846178"></polygon>
                </g>
                <g id="Group-25" transform="translate(0.494082, 15.706258)" fill="#131313">
                    <path d="M46.1271531,37.3746001 C45.9406746,37.3746001 45.7518156,37.343529 45.5661307,37.2774034 C44.6853175,36.965896 44.2234857,35.9971158 44.5329606,35.1135818 L48.7529285,23.0898723 C49.191748,21.8366722 48.5172515,20.3827052 47.2785584,19.9158424 C46.6881755,19.6935647 46.0478005,19.7166689 45.4788429,19.9835614 C44.9090917,20.2496573 44.4797944,20.7260805 44.2695102,21.3243978 L41.8984564,28.0763816 C41.5889815,28.9599155 40.6224677,29.4235915 39.7432416,29.1128808 C38.8632219,28.8013733 38.4013902,27.8317964 38.7108651,26.9490592 L41.0827124,20.1962788 C41.5961233,18.7311581 42.649925,17.5632043 44.0497037,16.9083216 C45.4494824,16.2526423 47.0190756,16.1936869 48.4664658,16.7394225 C51.4350442,17.8595746 52.993528,21.2136573 51.9397263,24.2171946 L47.720552,36.2409042 C47.4761462,36.9388084 46.8238683,37.3746001 46.1271531,37.3746001" id="Fill-15"></path>
                    <path d="M40.3051369,29.2107945 C40.1186584,29.2107945 39.9282123,29.1789267 39.7433209,29.1135978 C38.8633013,28.8020904 38.4014695,27.8333102 38.7109444,26.9497762 L43.5577973,13.1422683 C43.9966168,11.8890682 43.3221203,10.4351012 42.0826337,9.9682384 C41.4890767,9.74357062 40.8502888,9.76986153 40.2829182,10.0351607 C39.7131669,10.3020533 39.2838697,10.7776798 39.0735855,11.3759971 L34.2283197,25.1835051 C33.9188448,26.0686324 32.9499503,26.5315118 32.0738983,26.2200043 C31.1930852,25.9084969 30.7312534,24.9405134 31.0407283,24.0561827 L35.8859941,10.2486748 C36.4001986,8.78275736 37.4540002,7.61560029 38.853779,6.95992093 C40.2527642,6.30503826 41.8231509,6.2444895 43.2705411,6.79102175 C46.239913,7.91117386 47.7983968,11.2660533 46.7445952,14.2695906 L41.8985358,28.0770986 C41.65413,28.7742061 41.0018521,29.2107945 40.3051369,29.2107945" id="Fill-17"></path>
                    <path d="M26.8461532,54.6264563 C24.3965404,54.6264563 21.9358183,54.1795108 19.5584163,53.2832298 L20.7463238,50.1068099 C25.119442,51.7559669 29.8321892,51.5870678 34.0148613,49.6271999 C38.2007076,47.6689255 41.3605256,44.1531138 42.9126612,39.730664 L46.2192814,30.3105512 L49.4068727,31.4378736 L46.1002526,40.8579864 C44.2434032,46.1480362 40.4582873,50.3553785 35.4440005,52.7024397 C32.7087186,53.9827274 29.7853712,54.6264563 26.8461532,54.6264563" id="Fill-19"></path>
                    <path d="M19.5611143,53.2843452 C19.2833804,53.1799782 19.0096142,53.0700344 18.737435,52.9545138 C14.0286555,50.9492344 10.195928,47.1243053 7.94231598,42.1808175 L0.7212352,26.3289921 C-0.772973054,23.1103473 0.583955313,19.2750612 3.75250208,17.7916166 C5.28797365,17.073795 7.01944598,17.0108562 8.62792189,17.6163438 C10.2221143,18.217848 11.4981031,19.4057191 12.2194177,20.9600696 L13.6628403,24.0679738 L20.5434987,4.46212513 C21.0577031,2.99620772 22.1115048,1.82825395 23.5112835,1.17337128 C24.9102688,0.517691921 26.4798619,0.457143158 27.9280457,1.0044721 C30.8974176,2.12382752 32.4566949,5.47950368 31.4020997,8.48383768 L26.5560404,22.2913456 L23.368449,21.1640233 L28.2145084,7.35571863 C28.6541214,6.10172189 27.9788313,4.64855158 26.7401382,4.18089206 C26.1465813,3.95702098 25.5093804,3.98092181 24.9396292,4.24781438 C24.3706715,4.51470695 23.9413743,4.99113011 23.7310901,5.58944749 L16.0069142,27.5997194 C15.718071,28.4203145 15.0102464,29.0106649 14.1595872,29.1453062 C13.3113086,29.2807443 12.4455724,28.9357757 11.916291,28.241855 L11.7266384,27.9271607 L9.15720331,22.3941192 C8.81043272,21.6492101 8.20100525,21.0803704 7.43842738,20.7935605 C6.68854591,20.5099373 5.88549825,20.5362282 5.1800542,20.867653 C3.70171645,21.5599803 3.07800552,23.371663 3.78979777,24.9068929 L11.0172268,40.769872 C12.91772,44.938973 16.1275301,48.1576177 20.0578612,49.8298789 C20.2840159,49.9262789 20.5133447,50.0186955 20.7450541,50.1063318 L19.5611143,53.2843452 Z" id="Fill-21"></path>
                    <path d="M32.6333337,26.318157 C32.4468552,26.318157 32.2572027,26.287086 32.0715177,26.2209603 C31.1922916,25.9094529 30.7296663,24.9406727 31.0399348,24.0571388 L37.1238937,6.72186869 C37.5635067,5.46866864 36.8882167,4.01549834 35.6495236,3.54704212 C35.0575537,3.32556112 34.4187657,3.34786856 33.8474275,3.61476113 C33.2784698,3.8824504 32.8491726,4.35887356 32.6396819,4.95639424 L26.55731,22.2916643 C26.2478351,23.1759949 25.2789406,23.639671 24.4020951,23.3273668 C23.5220755,23.0166561 23.0594502,22.0478759 23.3697186,21.1635453 L29.4520905,3.82827519 C29.9662949,2.36395117 31.0200966,1.1959974 32.4182883,0.541114732 C33.8172735,-0.115361327 35.3844861,-0.176706784 36.837431,0.371418857 C39.8068029,1.49077427 41.3660803,4.84565374 40.3114851,7.84919105 L34.2275261,25.1844611 C33.9831203,25.8823653 33.3308425,26.318157 32.6333337,26.318157" id="Fill-23"></path>
                </g>
                <g id="Group-28" transform="translate(30.138992, 15.706258)">
                    <mask id="mask-26" fill="white">
                        <use xlink:href="#path-25"></use>
                    </mask>
                    <g id="Clip-27"></g>
                    <polygon id="Fill-26" fill="#FEFEFE" mask="url(#mask-26)" points="10.166063 -11.7803489 60.761595 11.8270932 36.1217813 64.699311 -14.4745507 41.091869"></polygon>
                </g>
                <g id="Group-39" transform="translate(29.150828, 14.724617)" fill="#131313">
                    <path d="M6.66660039,37.2402445 C5.96653806,37.2402445 5.31187226,36.809893 5.06657169,36.1227442 L0.832747636,24.2715872 C-0.224115517,21.3109576 1.33927738,18.004005 4.31872354,16.8998551 C5.77220904,16.3619157 7.34595553,16.4208142 8.7516552,17.0663414 C10.155762,17.7118686 11.214218,18.8639226 11.7295085,20.308113 L14.1092426,26.9636399 C14.4206469,27.8345519 13.9563279,28.7894923 13.073883,29.097335 C12.193031,29.4043923 11.2229788,28.9465549 10.9099816,28.0756429 L8.53104397,21.4193308 C8.31998992,20.8303461 7.88912106,20.3599437 7.31728403,20.0976492 C6.74703986,19.8353547 6.10591338,19.8102247 5.51097986,20.0308976 C4.26775199,20.4918763 3.59078614,21.924287 4.03121216,23.1603695 L8.26583265,35.0115264 C8.57723694,35.8824385 8.11291801,36.8373789 7.22967669,37.1444363 C7.0441084,37.2096173 6.85376153,37.2402445 6.66660039,37.2402445" id="Fill-29"></path>
                    <path d="M12.5099307,29.1930646 C11.8106648,29.1930646 11.1552025,28.7634985 10.909902,28.0755644 L6.04769431,14.4653065 C4.9892383,11.5054622 6.55342762,8.1985096 9.53367022,7.09357436 C10.9879521,6.55563502 12.5616986,6.61453349 13.9666019,7.26006069 C15.3715051,7.90637321 16.4291647,9.0568566 16.9444552,10.5018323 L21.8090521,24.1120902 C22.11966,24.9837875 21.6561375,25.9379427 20.7736926,26.245 C19.893637,26.5520574 18.920399,26.0957906 18.6097912,25.2240933 L13.7459907,11.6130501 C13.5349366,11.0232801 13.1040677,10.5544483 12.5322307,10.2913685 C11.9619865,10.0298593 11.3208601,10.003944 10.7259265,10.2254022 C9.48269867,10.6855956 8.80573282,12.1187916 9.24615884,13.3540888 L14.1091629,26.9643466 C14.4205672,27.8352586 13.9562483,28.7909844 13.073007,29.0972565 C12.8874387,29.1624374 12.6970918,29.1930646 12.5099307,29.1930646" id="Fill-31"></path>
                    <path d="M26.0189036,54.2464309 C23.0673325,54.2464309 20.1340793,53.6118981 17.3887837,52.3491149 C12.3553435,50.0355831 8.55716689,45.8883457 6.69351973,40.673868 L3.37399779,31.3883283 L6.57325874,30.2771106 L9.89278069,39.5626503 C11.4505986,43.9227075 14.6219845,47.3867227 18.821562,49.3178071 C23.0227324,51.2496769 27.7527326,51.4169485 32.1394713,49.7913508 L33.3325241,52.921608 C30.9464186,53.8058703 28.4766879,54.2464309 26.0189036,54.2464309" id="Fill-33"></path>
                    <path d="M33.3330019,52.9219221 L32.1383563,49.7916649 C32.3701176,49.7052805 32.6010824,49.6149695 32.8264722,49.5199467 C36.7751742,47.869219 39.9975316,44.6973402 41.9049824,40.5870124 L49.1532956,24.9608564 C49.875658,23.4373493 49.2480708,21.6515478 47.7635245,20.9691109 C47.0547015,20.6424207 46.2503067,20.6165054 45.4960871,20.8960768 C44.7323104,21.1787895 44.1198554,21.7395029 43.7718153,22.4729851 L41.0026268,28.2363965 C40.4722041,28.9211893 39.6048914,29.2628004 38.751118,29.1292972 C37.8973446,28.9965794 37.1877251,28.4138772 36.8978244,27.6089315 L29.1445744,5.90916544 C28.9343168,5.31939545 28.5034479,4.84899303 27.9316109,4.58669852 C27.3605703,4.32440401 26.7194438,4.30005931 26.1245103,4.51994692 C24.8812824,4.98171091 24.2035201,6.41490695 24.6447426,7.65098945 L29.5077467,21.2612473 L26.3092821,22.3724651 L21.4454816,8.7622072 C20.3870256,5.80079226 21.9520114,2.49305433 24.932254,1.38968971 C26.3865359,0.850965057 27.9610788,0.909863525 29.3659821,1.55539073 C30.7692924,2.20091793 31.8277485,3.35297195 32.3438354,4.79794769 L39.2496834,24.1229275 L40.6983904,21.0594219 C41.4223456,19.5280617 42.7030057,18.3571602 44.3030344,17.764249 C45.9181953,17.1674112 47.6560064,17.2286656 49.1963028,17.9370178 C52.3764495,19.3984851 53.7391419,23.1789814 52.233092,26.3634252 L44.9903538,41.9778016 C42.7292879,46.8514534 38.8809362,50.6217407 34.1549181,52.5975879 C33.8881139,52.7098877 33.612549,52.8182608 33.3330019,52.9219221" id="Fill-35"></path>
                    <path d="M20.2090234,26.3417506 C19.5097575,26.3417506 18.8550917,25.9113991 18.6097912,25.2242503 L12.5043556,8.13662695 C11.4458996,5.17599732 13.0092925,1.8690447 15.9895351,0.765680077 C17.4446135,0.225384802 19.0207493,0.285853895 20.4248561,0.932166411 C21.8297593,1.57847893 22.8866225,2.72974764 23.4027094,4.17315275 L29.5073485,21.2607761 C29.8179563,22.1324734 29.3544338,23.0874139 28.4711925,23.393686 C27.5927298,23.7015286 26.6194918,23.2444765 26.3080875,22.3719939 L20.2034484,5.28594112 C19.9931908,4.69617114 19.5623219,4.22576871 18.9904849,3.9634742 C18.4186479,3.69960907 17.7743357,3.67762031 17.1825879,3.89593729 C15.9401564,4.35691596 15.2623942,5.78932669 15.7036166,7.0254092 L21.8090521,24.1130326 C22.11966,24.9839446 21.6561375,25.9388851 20.7720997,26.2459424 C20.5873279,26.3111234 20.3961846,26.3417506 20.2090234,26.3417506" id="Fill-37"></path>
                </g>
            </g>
        </g>
        <g id="Group-2">
            <rect id="Rectangle" fill="#F4F4F4" x="0" y="0" width="286" height="168" rx="84"></rect>
            <g id="Group-48" transform="translate(162.000000, 38.000000)">
                <path d="M13.9340769,70.5708983 L12.6772035,69.4647692 L10.4636055,71.9791861 L11.7211489,73.0859851 C13.4416452,74.600129 15.3169057,75.9461092 17.2966824,77.0884169 L18.7471787,77.9258859 L20.4214467,75.0235533 L18.9702804,74.1867543 C17.1827866,73.1549926 15.4884194,71.9389876 13.9340769,70.5708983" id="Fill-1" fill="#231F20"></path>
                <path d="M6.20122333,60.1941216 L5.50109926,58.6726079 L2.45740199,60.0721861 L3.15752605,61.5943697 C4.11358065,63.6706228 5.28268734,65.6624591 6.6340273,67.5129305 L7.62157072,68.8649404 L10.3269305,66.8898536 L9.3393871,65.5371737 C8.11936228,63.8662556 7.06348139,62.0687122 6.20122333,60.1941216" id="Fill-3" fill="#231F20"></path>
                <path d="M49.70834,20.0218065 L51.1688859,20.8411861 L52.8076452,17.9194243 L51.3464293,17.1000447 C49.3485633,15.9791762 47.2314417,15.0559504 45.0533524,14.3571663 L43.4581414,13.8446352 L42.4344194,17.0343871 L44.0282903,17.5462481 C45.9939975,18.1773648 47.9054367,19.0101439 49.70834,20.0218065" id="Fill-5" fill="#231F20"></path>
                <path d="M31.1531762,16.2400645 C33.1952605,16.0203127 35.3030025,16.0035633 37.3531266,16.1911563 L39.0206948,16.3419007 L39.3235236,13.0060943 L37.6552854,12.8540099 C35.3894293,12.6489975 33.0579156,12.6670868 30.7974194,12.9082779 L29.131861,13.0864913 L29.4876179,16.4176079 L31.1531762,16.2400645 Z" id="Fill-7" fill="#231F20"></path>
                <g id="Group-11" transform="translate(0.000000, 45.491315)">
                    <mask id="mask-28" fill="white">
                        <use xlink:href="#path-27"></use>
                    </mask>
                    <g id="Clip-10"></g>
                    <path d="M4.05388586,8.23928784 C3.62376179,6.22668238 3.3939603,4.15377916 3.36984119,2.07953598 L3.34974194,0.404598015 L-0.000133995037,0.443456576 L0.0199652605,2.11839454 C0.046764268,4.41506948 0.301354839,6.70973449 0.777037221,8.93807196 L1.12743424,10.5761613 L4.40294293,9.8767072 L4.05388586,8.23928784 Z" id="Fill-9" fill="#231F20" mask="url(#mask-28)"></path>
                </g>
                <path d="M9.2664938,28.9571985 C10.4791489,27.2836005 11.8633176,25.7238983 13.3821514,24.3216402 L14.6122258,23.1853623 L12.33967,20.7238734 L11.1089256,21.8601514 C9.42795782,23.4131538 7.89505459,25.1396799 6.55376427,26.9928313 L5.57091067,28.349531 L8.28431017,30.3138983 L9.2664938,28.9571985 Z" id="Fill-12" fill="#231F20"></path>
                <path d="M4.02768983,40.7870844 C4.45044417,38.7657692 5.07955087,36.7792928 5.89759057,34.8825931 L6.56019603,33.34433 L3.48433995,32.0177792 L2.82106452,33.5553722 C1.91525806,35.6584243 1.2178139,37.8606328 0.74816129,40.1016998 L0.40580397,41.741129 L3.68466253,42.4265136 L4.02768983,40.7870844 Z" id="Fill-14" fill="#231F20"></path>
                <path d="M55.3462481,70.3248834 C53.810665,71.7103921 52.1310372,72.9464963 50.354933,73.9996973 L48.9131464,74.8539156 L50.6215831,77.7361489 L52.0626998,76.8812605 C54.0297469,75.7155037 55.889598,74.3467444 57.590665,72.8125012 L58.834139,71.6902928 L56.5897221,69.2026749 L55.3462481,70.3248834 Z" id="Fill-16" fill="#231F20"></path>
                <path d="M18.8613424,20.2697643 C20.6474963,19.2299628 22.544866,18.3663648 24.4998536,17.7030893 L26.0863548,17.1650993 L25.0103747,13.9927667 L23.4245434,14.5314268 C21.2571737,15.2657196 19.1547916,16.2224442 17.1756849,17.3754715 L15.7285385,18.2176303 L17.414196,21.1125931 L18.8613424,20.2697643 Z" id="Fill-18" fill="#231F20"></path>
                <path d="M62.9567643,59.8558511 C62.1172854,61.7398213 61.0821737,63.5500943 59.8815782,65.2364218 L58.9107841,66.6011613 L61.6395931,68.5440893 L62.6110571,67.1800199 C63.9409578,65.312129 65.0866154,63.3062233 66.015871,61.2192506 L66.6979057,59.6896973 L63.638799,58.3262978 L62.9567643,59.8558511 Z" id="Fill-20" fill="#231F20"></path>
                <path d="M68.9865409,45.3853251 L65.636665,45.3853251 L65.637335,47.196938 C65.637335,49.274531 65.4316526,51.3487742 65.0269876,53.3647295 L64.6973598,55.0068387 L67.9815782,55.6667643 L68.311206,54.0246551 C68.7594194,51.7922978 68.9872109,49.4956228 68.9872109,47.1728189 L68.9865409,45.3853251 Z" id="Fill-22" fill="#231F20"></path>
                <g id="Group-26" transform="translate(22.109181, 76.310174)">
                    <mask id="mask-30" fill="white">
                        <use xlink:href="#path-29"></use>
                    </mask>
                    <g id="Clip-25"></g>
                    <path d="M3.10124814,0.611754342 L1.50201737,0.112622829 L0.503754342,3.31041439 L2.10298511,3.80954591 C4.28442432,4.49024069 6.54693052,4.9545335 8.8261861,5.18902481 L10.4924144,5.35986849 L10.8347717,2.02741191 L9.1692134,1.85589826 C7.11037965,1.64485608 5.06963524,1.22612159 3.10124814,0.611754342" id="Fill-24" fill="#231F20" mask="url(#mask-30)"></path>
                </g>
                <path d="M59.4413375,28.5548114 L60.4449603,29.8961017 L63.126871,27.8881861 L62.1225782,26.5475658 C60.7531489,24.7178635 59.1934467,23.0161266 57.4863499,21.4885831 L56.2381861,20.3717345 L54.0044888,22.868732 L55.2526526,23.9855806 C56.7949355,25.3650596 58.2038933,26.9026526 59.4413375,28.5548114" id="Fill-27" fill="#231F20"></path>
                <path d="M44.1490199,76.8100422 C42.1873325,77.4485285 40.1512779,77.8913821 38.095794,78.1278834 L36.4315757,78.3188263 L36.8141315,81.6465931 L38.4776799,81.4556501 C40.7555955,81.1943598 43.012072,80.703268 45.1854715,79.9951042 L46.7786725,79.4765434 L45.7415509,76.2914814 L44.1490199,76.8100422 Z" id="Fill-29" fill="#231F20"></path>
                <path d="M62.9043722,34.4223201 C63.7525608,36.3036104 64.4138263,38.2800372 64.8707494,40.2966625 L65.2405757,41.9293921 L68.5073747,41.1897395 L68.1382184,39.55567 C67.6317171,37.3213027 66.8980943,35.1311538 65.9587891,33.0455211 L65.2700546,31.5186476 L62.2163077,32.8954467 L62.9043722,34.4223201 Z" id="Fill-31" fill="#231F20"></path>
                <g id="Group-35" transform="translate(6.699752, 0.602978)">
                    <mask id="mask-32" fill="white">
                        <use xlink:href="#path-31"></use>
                    </mask>
                    <g id="Clip-34"></g>
                    <path d="M1.01152854,4.52688834 L1.31636725,6.17368734 L4.60996526,5.56400993 L4.30512655,3.91721092 C4.05187593,2.55046154 3.96410918,1.73912159 3.96343921,1.73041191 L3.78589578,0.0668635236 L0.457459057,0.417930521 L0.632322581,2.08281886 C0.635672457,2.11966749 0.731478908,3.01743424 1.01152854,4.52688834" id="Fill-33" fill="#231F20" mask="url(#mask-32)"></path>
                </g>
                <path d="M9.71531017,12.9360149 C10.2499504,14.5734342 10.852928,16.1920943 11.5088337,17.7477767 L12.1587097,19.2907295 L15.2459553,17.9903077 L14.5954094,16.4466849 C13.9756824,14.9767593 13.4055335,13.446536 12.9003722,11.8968834 L12.3804715,10.3043524 L9.1960794,11.3441538 L9.71531017,12.9360149 Z" id="Fill-36" fill="#231F20"></path>
                <path d="M54.4374268,46.0291042 L54.4702556,42.6792283 L52.7953176,42.6631489 C51.1585682,42.6463995 49.5378983,42.5552829 47.9761861,42.391139 L46.3106278,42.2162754 L45.9602308,45.5473921 L47.6257891,45.7229256 C49.2920174,45.8984591 51.0198834,45.9956055 52.7624888,46.0130248 L54.4374268,46.0291042 Z" id="Fill-38" fill="#231F20"></path>
                <path d="M41.2623648,44.6538462 L42.1849206,41.4332754 L40.5749702,40.9723325 C39.0300074,40.5294789 37.5145236,39.9928288 36.071397,39.3771216 L34.5311241,38.7205459 L33.2166328,41.8010918 L34.7575757,42.4590074 C36.3279975,43.1289826 37.9747965,43.711861 39.6524144,44.1929032 L41.2623648,44.6538462 Z" id="Fill-40" fill="#231F20"></path>
                <path d="M18.0297692,23.2277047 L17.1634913,21.7932878 L14.2959975,23.5251737 L15.1616055,24.9589206 C16.064732,26.4543052 17.0388759,27.8947519 18.0572382,29.2393921 L19.0689007,30.5739826 L21.7387519,28.5513275 L20.7277593,27.216067 C19.7797444,25.9652233 18.871928,24.623263 18.0297692,23.2277047" id="Fill-42" fill="#231F20"></path>
                <path d="M27.6102804,38.503005 L28.9843995,39.4603995 L30.8991886,36.7114913 L29.5243995,35.7534268 C28.2320174,34.8529801 26.9764839,33.8520372 25.7939777,32.778737 L24.5538536,31.6525087 L22.302067,34.1334268 L23.5421911,35.2583151 C24.8312233,36.4280918 26.1993127,37.5194814 27.6102804,38.503005" id="Fill-44" fill="#231F20"></path>
                <path d="M60.4449603,42.2402605 L58.7814119,42.4338834 L59.1686576,45.7616501 L60.832206,45.5680273 C61.614067,45.4769107 62.4066476,45.3723945 63.2106179,45.252469 L64.8674665,45.0059181 L64.3736948,41.6928908 L62.7175161,41.9394417 C61.9483846,42.0540074 61.1913127,42.1531638 60.4449603,42.2402605" id="Fill-46" fill="#231F20"></path>
            </g>
            <g id="Group-16" transform="translate(55.000000, 38.000000)">
                <path d="M1.73076923,46.3592077 C1.73076923,65.0840538 16.9096154,80.2635923 35.6344615,80.2635923 C54.3586154,80.2635923 69.5374615,65.0840538 69.5374615,46.3592077 C69.5374615,27.6350538 54.3586154,12.4555154 35.6344615,12.4555154 C16.9096154,12.4555154 1.73076923,27.6350538 1.73076923,46.3592077" id="Fill-1" fill="#FEFEFE"></path>
                <g id="Group-5" transform="translate(0.000000, 10.686462)">
                    <mask id="mask-34" fill="white">
                        <use xlink:href="#path-33"></use>
                    </mask>
                    <g id="Clip-4"></g>
                    <path d="M35.6342538,3.5001 C17.8938692,3.5001 3.46133077,17.9326385 3.46133077,35.6730231 C3.46133077,53.4134077 17.8938692,67.8459462 35.6342538,67.8459462 C53.3746385,67.8459462 67.8071769,53.4134077 67.8071769,35.6730231 C67.8071769,17.9326385 53.3746385,3.5001 35.6342538,3.5001 M35.6342538,71.3074846 C15.9851769,71.3074846 -0.000207692308,55.3221 -0.000207692308,35.6730231 C-0.000207692308,16.0239462 15.9851769,0.0385615385 35.6342538,0.0385615385 C55.2833308,0.0385615385 71.2687154,16.0239462 71.2687154,35.6730231 C71.2687154,55.3221 55.2833308,71.3074846 35.6342538,71.3074846" id="Fill-3" fill="#231F20" mask="url(#mask-34)"></path>
                </g>
                <path d="M1.73076923,41.9579308 C4.04169231,25.4837769 18.1896923,12.8062385 35.3007692,12.8062385 C43.3834615,12.8062385 50.8029231,15.6357 56.6286923,20.3565462 C49.2666923,34.1701615 33.7880769,48.9633923 1.73076923,41.9579308" id="Fill-6" fill="#231F20"></path>
                <path d="M17.5983923,45.1402615 C12.3624692,45.1402615 6.77346923,44.4645692 0.844546154,43.1111077 L1.61508462,39.7361077 C18.3523154,43.5583385 32.1230077,41.7244154 42.5429308,34.2890308 C59.0980846,22.4761846 61.6610077,0.223338462 61.6845462,0.000415384615 L65.1267,0.365261538 C65.0242385,1.33864615 62.4024692,24.3502615 44.5790077,37.0887231 C37.0771615,42.4506462 28.0418538,45.1402615 17.5983923,45.1402615" id="Fill-8" fill="#231F20"></path>
                <path d="M35.9242615,61.9043538 C32.3353385,61.9043538 28.9714154,60.2988923 25.9224923,57.1302 C25.2592615,56.4420462 25.2800308,55.3461231 25.9688769,54.6835846 C26.6570308,54.0217385 27.7536462,54.0425077 28.4154923,54.7306615 C30.7873385,57.1938923 33.3142615,58.4428154 35.9277231,58.4428154 L35.9831077,58.4428154 C40.4464154,58.4123538 43.8934154,54.7881231 43.9273385,54.7514308 C44.5808769,54.0549692 45.6733385,54.0162 46.3718769,54.6655846 C47.0697231,55.3156615 47.1119538,56.4060462 46.4646462,57.1059692 C46.2853385,57.2998154 42.0103385,61.8455077 36.0419538,61.9036615 C36.0024923,61.9043538 35.9637231,61.9043538 35.9242615,61.9043538" id="Fill-10" fill="#231F20"></path>
                <path d="M37.5711923,48.5084769 C37.5711923,49.8750923 38.6788846,50.9827846 40.0448077,50.9827846 C41.4121154,50.9827846 42.5191154,49.8750923 42.5191154,48.5084769 C42.5191154,47.1418615 41.4121154,46.0348615 40.0448077,46.0348615 C38.6788846,46.0348615 37.5711923,47.1418615 37.5711923,48.5084769" id="Fill-12" fill="#231F20"></path>
                <path d="M29.0884154,48.5084769 C29.0884154,49.8750923 30.1968,50.9827846 31.5627231,50.9827846 C32.9293385,50.9827846 34.0363385,49.8750923 34.0363385,48.5084769 C34.0363385,47.1418615 32.9293385,46.0348615 31.5627231,46.0348615 C30.1968,46.0348615 29.0884154,47.1418615 29.0884154,48.5084769" id="Fill-14" fill="#231F20"></path>
            </g>
        </g>
    </g>
</svg>