<?xml version="1.0" encoding="UTF-8"?>
<svg width="360px" height="240px" viewBox="0 0 360 240" version="1.1" xmlns="http://www.w3.org/2000/svg" xmlns:xlink="http://www.w3.org/1999/xlink">
    <!-- Generator: Sketch 60 (88103) - https://sketch.com -->
    <title>ico_layer</title>
    <desc>Created with Sketch.</desc>
    <defs>
        <polygon id="path-1" points="0.522666667 0.2748 19.5584242 0.2748 19.5584242 23.40408 0.522666667 23.40408"></polygon>
    </defs>
    <g id="ico_layer" stroke="none" stroke-width="1" fill="none" fill-rule="evenodd">
        <g id="icon/guide/close" opacity="0.299999982" transform="translate(240.000000, 120.000000)" fill="#000000">
            <path d="M39.5619001,8.43809986 C40.1460333,9.022233 40.1460333,9.96929994 39.5619001,10.5534331 L26.115,24 L39.5619001,37.4465669 C40.1460333,38.0307001 40.1460333,38.977767 39.5619001,39.5619001 C38.977767,40.1460333 38.0307001,40.1460333 37.4465669,39.5619001 L24,26.115 L10.5534331,39.5619001 C9.96929994,40.1460333 9.022233,40.1460333 8.43809986,39.5619001 C7.85396671,38.977767 7.85396671,38.0307001 8.43809986,37.4465669 L21.885,24 L8.43809986,10.5534331 C7.85396671,9.96929994 7.85396671,9.022233 8.43809986,8.43809986 C9.022233,7.85396671 9.96929994,7.85396671 10.5534331,8.43809986 L24,21.885 L37.4465669,8.43809986 C38.0307001,7.85396671 38.977767,7.85396671 39.5619001,8.43809986 Z" id="Combined-Shape"></path>
        </g>
        <g id="url복사" transform="translate(120.000000, 0.000000)">
            <g id="Group-2">
                <circle id="Oval-Copy-2" fill="#C5C5C5" cx="50" cy="50" r="50"></circle>
                <g id="Group-8" transform="translate(19.000000, 38.000000)">
                    <path d="M0,1 L5.02728037,1 L5.02728037,15.3695311 C5.02728037,16.9767336 5.21950352,18.1505741 5.6033357,18.8904456 C6.20088564,20.2014567 7.50223027,20.8569622 9.50798371,20.8569622 C11.5032969,20.8569622 12.7991144,20.2014567 13.3966643,18.8904456 C13.7804965,18.1505741 13.9727196,16.9767336 13.9727196,15.3695311 L13.9727196,1 L19,1 L19,15.3810632 C19,17.8677356 18.6100265,19.8045117 17.8294654,21.1907845 C16.3758161,23.7302615 13.6017842,25 9.50798371,25 C5.41418321,25 2.63523822,23.7302615 1.17053462,21.1907845 C0.389973495,19.8045117 0,17.8677356 0,15.3810632 L0,1 Z" id="Fill-1" fill="#FFFFFF"></path>
                    <g id="Group-5" transform="translate(23.000000, 1.000000)">
                        <mask id="mask-2" fill="white">
                            <use xlink:href="#path-1"></use>
                        </mask>
                        <g id="Clip-4"></g>
                        <path d="M5.29357576,4.29168 L5.29357576,10.50528 L10.5469091,10.50528 C11.5911515,10.50528 12.3735758,10.37988 12.8953939,10.12908 C13.8184242,9.68988 14.2802424,8.82108 14.2802424,7.52448 C14.2802424,6.12228 13.8335758,5.18088 12.9408485,4.69968 C12.4390303,4.42788 11.686303,4.29168 10.6826667,4.29168 L5.29357576,4.29168 Z M15.3832727,0.87108 C16.2438788,1.23768 16.9729697,1.77588 17.5705455,2.48748 C18.0650909,3.07308 18.4566061,3.72168 18.7450909,4.43268 C19.0335758,5.14428 19.1778182,5.95488 19.1778182,6.86508 C19.1778182,7.96368 18.8978182,9.04368 18.3378182,10.10508 C17.7778182,11.16708 16.8529697,11.91768 15.5638788,12.35688 C16.6420606,12.78588 17.4050909,13.39548 17.8547879,14.18508 C18.3032727,14.97528 18.5281212,16.18068 18.5281212,17.80188 L18.5281212,19.35528 C18.5281212,20.41248 18.5711515,21.12888 18.6566061,21.50508 C18.785697,22.10148 19.086303,22.54068 19.5584242,22.82328 L19.5584242,23.40408 L14.1693333,23.40408 C14.0214545,22.89168 13.916,22.47828 13.8523636,22.16448 C13.725697,21.51588 13.6566061,20.85168 13.646303,20.17128 L13.6147879,18.02148 C13.5947879,16.54668 13.3372121,15.56388 12.8426667,15.07188 C12.3475152,14.57988 11.4202424,14.33388 10.0614545,14.33388 L5.29357576,14.33388 L5.29357576,23.40408 L0.522666667,23.40408 L0.522666667,0.27468 L11.6972121,0.27468 C13.2941818,0.30588 14.5232727,0.50508 15.3832727,0.87108 L15.3832727,0.87108 Z" id="Fill-3" fill="#FFFFFF" mask="url(#mask-2)"></path>
                    </g>
                    <polygon id="Fill-6" fill="#FFFFFF" points="47 0 51.7203604 0 51.7203604 19.6853793 63 19.6853793 63 24 47 24"></polygon>
                </g>
            </g>
        </g>
        <g id="카톡">
            <circle id="Oval" fill="#FAE100" cx="50" cy="50" r="50"></circle>
            <g id="asset/kakaotalk-icon" transform="translate(21.000000, 25.000000)" fill="#191919">
                <g id="icon/asset/kakaotalk" transform="translate(0.000000, 0.122505)">
                    <path d="M49.4309374,29.2909958 C49.3238466,30.2895124 48.3564402,30.3672878 48.0626885,30.3672878 C47.9914941,30.3672878 47.9197014,30.3636982 47.8479087,30.3565189 C47.3417703,30.3044692 47.0563944,29.9861883 46.5275216,29.2718511 L42.9241272,24.3594368 L41.9387726,25.3645344 L41.9387726,29.0570714 C41.9387726,29.8043135 41.3488761,30.3678861 40.5675324,30.3678861 C39.7467027,30.3678861 39.1944973,29.8408081 39.1944973,29.0570714 L39.1944973,17.7030585 C39.1944973,16.9205183 39.7712319,16.3521596 40.5675324,16.3521596 C41.3871655,16.3521596 41.9387726,16.8953909 41.9387726,17.7030585 L41.9387726,22.0991638 L46.7698219,17.0629071 C46.9852,16.8493239 47.3363858,16.5615549 47.8604724,16.5615549 C48.5227599,16.5795031 49.1898336,17.0198315 49.1718854,17.8263027 C49.1718854,18.2038125 48.9463367,18.4526938 48.4976325,18.9480633 C48.3959262,19.0605385 48.283451,19.1843809 48.1620017,19.3231801 L44.8601365,22.6549589 L48.7662568,27.7695892 C49.1694923,28.2960689 49.5039266,28.7316112 49.4309374,29.2909958 L49.4309374,29.2909958 Z M38.0105163,29.0169871 C37.9937647,29.5997044 37.5283088,30.2141301 36.6997016,30.2141301 L31.586866,30.2141301 C30.6888592,30.2141301 30.1528072,29.6463696 30.1528072,28.6957148 L30.1528072,17.7850219 C30.1528072,16.9013736 30.6786886,16.3521596 31.5246457,16.3521596 C32.3706028,16.3521596 32.8958859,16.9013736 32.8958859,17.7850219 L32.8958859,27.7181378 L36.6997016,27.7181378 C37.1101164,27.7181378 37.4517299,27.8497577 37.6874492,28.0998356 C37.9123997,28.3385462 38.0302593,28.6729805 38.0105163,29.0169871 L38.0105163,29.0169871 Z M27.4719487,30.3690826 C26.7839355,30.3690826 26.3460002,30.0573827 26.1336135,29.4160348 L25.5341446,27.5398527 L19.8026954,27.5398527 L19.1876714,29.394497 C18.9734899,30.0597758 18.5546992,30.3690826 17.8690791,30.3690826 C17.1116663,30.3690826 16.5187784,29.8120911 16.5187784,29.1007452 C16.5187784,28.818959 16.6037331,28.6023844 16.6438173,28.498285 L20.6259182,17.9513416 C20.9106958,17.1783737 21.5969142,16.3533561 22.6660269,16.3533561 C23.6059128,16.3533561 24.3507618,16.9348768 24.709127,17.9483502 L28.5679837,28.478542 C28.6906295,28.8087883 28.7235345,29.0768143 28.7235345,29.1827085 C28.7235345,29.8479874 28.1737222,30.3690826 27.4719487,30.3690826 L27.4719487,30.3690826 Z M14.1998748,28.9326307 C14.1998748,29.8174755 13.6739934,30.3678861 12.8280362,30.3678861 C11.9826774,30.3678861 11.4573943,29.8174755 11.4573943,28.9326307 L11.4573943,18.9713959 L8.57192669,18.9713959 C7.66674061,18.9713959 7.34606663,18.3001344 7.34606663,17.7251946 C7.34606663,17.119743 7.77562618,16.4754037 8.57192669,16.4754037 L17.0835475,16.4754037 C17.8816428,16.4754037 18.3123989,17.119743 18.3123989,17.7251946 C18.3123989,18.3001344 17.9905284,18.9713959 17.0835475,18.9713959 L14.1998748,18.9713959 L14.1998748,28.9326307 Z M28.6756727,0.280170945 C12.8388051,0.280170945 -0.000119654472,10.4238788 -0.000119654472,22.9349503 C-0.000119654472,30.9787222 5.30894925,38.0443187 13.3090472,42.0635124 L10.6060527,52.1599567 C10.5055429,52.4590929 10.5815235,52.7839548 10.8034826,53.0059138 C10.9632213,53.1656526 11.1738132,53.2464193 11.384405,53.2464193 C11.564485,53.2464193 11.7439667,53.1883869 11.8947314,53.069929 L23.5197615,45.2223905 C25.1919328,45.4622977 26.9155554,45.5885331 28.6756727,45.5885331 C44.511942,45.5885331 57.3508668,35.4472184 57.3508668,22.9349503 C57.3508668,10.4238788 44.511942,0.280170945 28.6756727,0.280170945 L28.6756727,0.280170945 Z" id="Fill-3"></path>
                    <path d="M22.638985,18.8671171 L20.5731505,25.1100891 L24.7628518,25.1100891 L22.6928295,18.8671171 C22.6838554,18.8413914 22.6479591,18.8413914 22.638985,18.8671171" id="Fill-1"></path>
                </g>
            </g>
        </g>
        <g id="페이스북" transform="translate(0.000000, 120.000000)">
            <circle id="Oval" fill="#4267B2" cx="50" cy="50" r="50"></circle>
            <path d="M55.0806289,82 L55.0806289,54.6692356 L64.229994,54.6692356 L65.6006853,43.971588 L55.0806289,43.971588 L55.0806289,37.1582217 C55.0806289,34.0683269 55.9325136,31.9626157 60.332433,31.9626157 L65.9090909,31.9626157 L65.9090909,22.420314 C64.9386414,22.2905619 61.6099174,22 57.7370288,22 C49.6499496,22 44.1150978,26.9692299 44.1150978,36.0988095 L44.1150978,43.971588 L35,43.971588 L35,54.6692356 L44.1150978,54.6692356 L44.1150978,82 L55.0806289,82 Z" id="Fill-1" fill="#FFFFFF"></path>
        </g>
        <g id="트위터" transform="translate(120.000000, 120.000000)">
            <circle id="Oval" fill="#1DA1F2" cx="50" cy="50" r="50"></circle>
            <path d="M42.9392769,74 C63.2654465,74 74.3809731,57.0735028 74.3809731,42.3962385 C74.3809731,41.915198 74.3711175,41.4364613 74.3493435,40.9602589 C76.5068059,39.3925 78.3823519,37.4363147 79.862069,35.2089682 C77.8820076,36.0929492 75.7513617,36.688951 73.5159712,36.957578 C75.797431,35.58265 77.5489796,33.406679 78.3752467,30.8130229 C76.2395583,32.0854303 73.8755865,33.0108804 71.3585089,33.5091996 C69.3420047,31.350277 66.470125,30 63.2920337,30 C57.1888883,30 52.2399956,34.9744379 52.2399956,41.1067827 C52.2399956,41.9785534 52.3369473,42.8261339 52.5267252,43.6393872 C43.3426694,43.1753951 35.1984954,38.7550292 29.7490292,32.0342852 C28.798994,33.675306 28.2523513,35.58265 28.2523513,37.6169353 C28.2523513,41.4707884 30.2033042,44.8726294 33.1698436,46.862681 C31.3573277,46.8066979 29.6541403,46.3060748 28.1647968,45.4732389 C28.1622756,45.5195459 28.1622756,45.5663138 28.1622756,45.6149247 C28.1622756,50.9950677 31.9720428,55.4861613 37.0279721,56.5046862 C36.0999401,56.7583383 35.1230885,56.8954164 34.1150656,56.8954164 C33.4031695,56.8954164 32.7107554,56.8244583 32.0375941,56.6949829 C33.4444255,61.1079765 37.5237324,64.3192904 42.3610045,64.4098311 C38.5782829,67.3893793 33.8136672,69.1647136 28.6362618,69.1647136 C27.7444434,69.1647136 26.8650019,69.1133382 26,69.0108175 C30.8909051,72.1613103 36.6976945,74 42.9392769,74" id="Fill-1" fill="#FFFFFF"></path>
        </g>
        <g id="icon" transform="translate(240.000000, 180.000000)" fill="#000000">
            <path d="M15.3333333,2.57571742e-14 C6.9,2.57571742e-14 -5.68434189e-14,6.21176471 -5.68434189e-14,13.9294118 C-5.68434189e-14,19.5764706 2.39583333,22.3058824 5.75,24.7529412 L5.75,24.7529412 L5.75,31.4352941 C5.75,31.7176471 6.13333333,31.9058824 6.325,31.7176471 L12.1708333,27.4823529 L12.2666667,27.5764706 C13.225,27.7647059 14.2791667,27.8588235 15.2375,27.8588235 C23.6708333,27.8588235 30.5708333,21.6470588 30.5708333,13.9294118 C30.5708333,6.21176471 23.8625,2.57571742e-14 15.3333333,2.57571742e-14 Z M10.2541667,17.5058824 C11.7875,17.5058824 13.0333333,16.6588235 13.4166667,15.2470588 L15.6208333,15.2470588 C15.0458333,17.8823529 13.0333333,19.5764706 10.2541667,19.5764706 C6.99583333,19.5764706 4.50416667,17.2235294 4.50416667,13.9294118 C4.50416667,10.6352941 7.09166667,8.28235294 10.2541667,8.28235294 C13.0333333,8.28235294 15.1416667,10.0705882 15.7166667,12.7058824 L13.5125,12.7058824 C13.1291667,11.2941176 11.8833333,10.3529412 10.35,10.3529412 C8.14583333,10.3529412 6.70833333,11.8588235 6.70833333,13.9294118 C6.70833333,16 8.24166667,17.5058824 10.2541667,17.5058824 Z M24.9166667,19.3882353 L22.9041667,19.3882353 L22.9041667,14.8705882 C22.9041667,13.8352941 22.3291667,13.2705882 21.3708333,13.2705882 C20.3166667,13.2705882 19.6458333,13.9294118 19.6458333,15.1529412 L19.6458333,19.2941176 L17.6333333,19.2941176 L17.6333333,8.28235294 L19.6458333,8.28235294 L19.6458333,12.4235294 C20.125,11.6705882 20.8916667,11.2941176 22.0416667,11.2941176 C22.9041667,11.2941176 23.575,11.5764706 24.15,12.1411765 C24.725,12.7058824 25.0125,13.4588235 25.0125,14.4941176 L25.0125,19.3882353 L24.9166667,19.3882353 Z" id="Shape" fill-rule="nonzero" opacity="0.9"></path>
            <path d="M41.2083333,7.52941176 L41.2076667,12.2344118 L46,12.2352941 L46,15.0588235 L41.2076667,15.0584118 L41.2083333,19.7647059 L38.3333333,19.7647059 L38.3326667,15.0584118 L33.5416667,15.0588235 L33.5416667,12.2352941 L38.3326667,12.2344118 L38.3333333,7.52941176 L41.2083333,7.52941176 Z" id="Rectangle-8" opacity="0.900000036"></path>
        </g>
        <g id="소문내기" transform="translate(240.000000, 0.000000)">
            <circle id="Oval-Copy" fill="#36BCC9" cx="50" cy="50" r="50"></circle>
            <g id="Group-7" transform="translate(25.000000, 34.000000)">
                <path d="M28.8,17 C28.8,19.6820708 26.650517,21.8571429 24,21.8571429 C21.349483,21.8571429 19.2,19.6820708 19.2,17 C19.2,14.3179292 21.349483,12.1428571 24,12.1428571 C26.650517,12.1428571 28.8,14.3179292 28.8,17 Z" id="Fill-1" fill="#FFFFFF"></path>
                <path d="M14.4,26.7142857 C11.4375671,24.2334705 9.6,20.7762162 9.6,16.9535611 C9.6,13.1773449 11.391771,9.7604191 14.2883721,7.28571429" id="Stroke-3" stroke="#FFFFFF" stroke-width="3.6"></path>
                <path d="M8,34 C3.07692308,29.7564192 0,23.7091914 0,16.9968687 C0,10.2883036 3.07421213,4.24358077 7.99322264,0" id="Stroke-5" stroke="#FFFFFF" stroke-width="3.6"></path>
                <path d="M33.6,7.28571429 C36.5624329,9.76652948 38.4,13.2237838 38.4,17.0464389 C38.4,20.8226551 36.608229,24.2395809 33.7116279,26.7142857" id="Stroke-7" stroke="#FFFFFF" stroke-width="3.6"></path>
                <path d="M39.6,0 C44.5230769,4.24358077 47.6,10.2908086 47.6,17.0031313 C47.6,23.7116964 44.5257879,29.7564192 39.6067774,34" id="Stroke-9" stroke="#FFFFFF" stroke-width="3.6"></path>
            </g>
        </g>
    </g>
</svg>