<svg xmlns="http://www.w3.org/2000/svg" width="116" height="22" viewBox="0 0 116 22">
    <g fill="none" fill-rule="evenodd">
        <g>
            <g>
                <path fill="#FFF" fill-opacity="0" d="M0 0H116V22H0z" transform="translate(-850 -3963) translate(850 3963)"/>
                <path fill="#323232" fill-rule="nonzero" d="M13.446 18.386v-7.51h2.184V9.028h-2.184V4.341h-2.15v14.045h2.15zm-7.173-3.058c1.747-2.167 2.973-4.771 2.973-8.686V5.366H2.862v1.713H7.13c0 .672-.05 1.31-.168 1.932h-4.57v1.714h4.133c-.454 1.226-1.143 2.352-2.033 3.444l1.78 1.159zm21.252 3.058v-7.51h2.184V9.028h-2.184V4.341h-2.15v14.045h2.15zm-7.174-3.058c1.747-2.167 2.974-4.771 2.974-8.686V5.366H16.94v1.713h4.267c0 .672-.05 1.31-.168 1.932h-4.57v1.714h4.133c-.453 1.226-1.142 2.352-2.033 3.444l1.781 1.159zm23.235.924v-1.78h-5.612v-2.168c2.134-.37 3.562-1.865 3.562-3.763 0-2.184-1.898-3.847-4.67-3.847-2.739 0-4.654 1.663-4.654 3.847 0 1.898 1.411 3.393 3.578 3.763v2.167h-5.61v1.781h13.406zm-6.72-5.628c-1.512 0-2.47-.89-2.47-2.083s.958-2.083 2.47-2.083c1.528 0 2.486.89 2.486 2.083s-.958 2.083-2.486 2.083zm9.424 1.058c1.882-.453 3.545-1.36 4.604-2.637l4.653 2.62.958-1.931-4.755-2.15c.202-.572.32-1.143.32-1.798V4.76l-2.184-.034v.991c0 2.084-1.848 3.512-4.436 4.217l.84 1.747zm11.39 4.57v-1.747h-3.594v-2.856h-2.168v2.856h-1.915v-2.856h-2.167v2.856h-3.595v1.747h13.44zm12.853-3.78V4.341h-2.15v8.131h2.15zm-11.945-.437c2.84 0 6.149-.017 8.602-.537l-.185-1.63c-.487.084-1.008.151-1.529.218V6.508h1.025V4.862h-7.61v1.646h1.024v3.864h-1.327v1.663zm3.41-1.713V6.508h1.395v3.763c-.47.034-.924.034-1.395.05zm4.47 8.77c2.536 0 3.98-1.429 3.98-3.16 0-1.73-1.41-3.174-3.98-3.174-2.571 0-4 1.444-4 3.175 0 1.73 1.429 3.158 4 3.158zm0-1.731c-1.26 0-1.882-.672-1.882-1.428 0-.807.621-1.462 1.881-1.462 1.243 0 1.882.655 1.882 1.462 0 .756-.639 1.428-1.882 1.428zm17.37 1.025v-7.443h2.184V9.112h-2.184V4.341h-2.15v14.045h2.15zm-9.844-4.032c2.503 0 5.006-.135 6.837-.47l-.201-1.731c-1.563.302-3.932.453-5.427.453v-2.05h4.435V5.299h-6.552v1.748h4.436V8.91h-4.436v5.444h.908zm24.696 4.032V4.34h-2.15v14.045h2.15zm-7.812-4.335c2.47 0 4.032-1.915 4.032-4.418s-1.563-4.419-4.032-4.419c-2.487 0-4.1 1.916-4.1 4.419 0 2.503 1.613 4.418 4.1 4.418zm0-1.797c-1.076 0-2-.89-2-2.621 0-1.747.908-2.621 2-2.621s1.948.874 1.948 2.62c0 1.731-.856 2.622-1.948 2.622zm20.882.117V4.912h-2.218v2.083h-4.536V4.912h-2.217v7.46h8.971zm-2.218-1.73h-4.536V8.658h4.536v1.983zm4.452 5.527v-1.747h-13.44v1.747h13.44z" transform="translate(-850 -3963) translate(850 3963)"/>
            </g>
        </g>
    </g>
</svg>
