<?xml version="1.0" encoding="UTF-8"?>
<svg width="100px" height="1200px" viewBox="0 0 100 1200" version="1.1" xmlns="http://www.w3.org/2000/svg" xmlns:xlink="http://www.w3.org/1999/xlink">
    <!-- Generator: Sketch 46.2 (44496) - http://www.bohemiancoding.com/sketch -->
    <title>Artboard</title>
    <desc>Created with Sketch.</desc>
    <defs></defs>
    <g id="Page-1" stroke="none" stroke-width="1" fill="none" fill-rule="evenodd">
        <g id="Artboard" fill="#000000">
            <path d="M71.338,1117.794 C71.338,1113.05398 70.4426756,1108.63002 68.652,1104.522 C66.8613244,1100.41398 64.4386819,1096.83268 61.384,1093.778 C58.3293181,1090.72332 54.7480205,1088.30068 50.64,1086.51 C46.5319795,1084.71932 42.1080237,1083.824 37.368,1083.824 C32.6279763,1083.824 28.2040205,1084.71932 24.096,1086.51 C19.9879795,1088.30068 16.4066819,1090.72332 13.352,1093.778 C10.2973181,1096.83268 7.87467562,1100.41398 6.084,1104.522 C4.29332438,1108.63002 3.398,1113.05398 3.398,1117.794 C3.398,1122.53402 4.29332438,1126.95798 6.084,1131.066 C7.87467562,1135.17402 10.2973181,1138.75532 13.352,1141.81 C16.4066819,1144.86468 19.9879795,1147.28732 24.096,1149.078 C28.2040205,1150.86868 32.6279763,1151.764 37.368,1151.764 C42.1080237,1151.764 46.5319795,1150.86868 50.64,1149.078 C54.7480205,1147.28732 58.3293181,1144.86468 61.384,1141.81 C64.4386819,1138.75532 66.8613244,1135.17402 68.652,1131.066 C70.4426756,1126.95798 71.338,1122.53402 71.338,1117.794 Z M5.294,1164.72 C6.3473386,1169.56536 8.00632201,1173.54165 10.271,1176.649 C12.535678,1179.75635 15.0899858,1182.20532 17.934,1183.996 C20.7780142,1185.78668 23.7536511,1187.02433 26.861,1187.709 C29.9683489,1188.39367 32.8386535,1188.736 35.472,1188.736 C40.8440269,1188.736 45.5049803,1187.81434 49.455,1185.971 C53.4050197,1184.12766 56.7756527,1181.62602 59.567,1178.466 C62.3583473,1175.30598 64.6229913,1171.67202 66.361,1167.564 C68.0990087,1163.45598 69.4683283,1159.13736 70.469,1154.608 C71.4696717,1150.07864 72.1279984,1145.52302 72.444,1140.941 C72.7600016,1136.35898 72.8653339,1132.01402 72.76,1127.906 L72.444,1127.906 C71.6013291,1131.69802 70.1266772,1135.22665 68.02,1138.492 C65.9133228,1141.75735 63.3063489,1144.62765 60.199,1147.103 C57.0916511,1149.57835 53.5893528,1151.50066 49.692,1152.87 C45.7946472,1154.23934 41.6866883,1154.924 37.368,1154.924 C32.7333102,1154.924 28.1776891,1154.02868 23.701,1152.238 C19.2243109,1150.44732 15.2480174,1147.91935 11.772,1144.654 C8.29598262,1141.38865 5.5046772,1137.46502 3.398,1132.883 C1.2913228,1128.30098 0.238,1123.27136 0.238,1117.794 C0.238,1112.42197 1.23865666,1107.47136 3.24,1102.942 C5.24134334,1098.41264 7.95364955,1094.48902 11.377,1091.171 C14.8003504,1087.85298 18.7503109,1085.27234 23.227,1083.429 C27.7036891,1081.58566 32.4173086,1080.664 37.368,1080.664 C41.0546851,1080.664 44.5043173,1081.16433 47.717,1082.165 C50.9296827,1083.16567 53.8526535,1084.45599 56.486,1086.036 C59.1193465,1087.61601 61.4629897,1089.40666 63.517,1091.408 C65.5710103,1093.40934 67.2826598,1095.46332 68.652,1097.57 C71.8120158,1102.31002 73.8133291,1107.7083 74.656,1113.765 C75.4986709,1119.8217 75.92,1126.32597 75.92,1133.278 C75.92,1140.01937 75.2880063,1146.83963 74.024,1153.739 C72.7599937,1160.63837 70.5743489,1166.90564 67.467,1172.541 C64.3596511,1178.17636 60.1990261,1182.78465 54.985,1186.366 C49.7709739,1189.94735 43.2140395,1191.738 35.314,1191.738 C30.6793102,1191.738 26.4396859,1191.05334 22.595,1189.684 C18.7503141,1188.31466 15.4060142,1186.41868 12.562,1183.996 C9.71798578,1181.57332 7.40067562,1178.70302 5.61,1175.385 C3.81932438,1172.06698 2.6606693,1168.51202 2.134,1164.72 L5.294,1164.72 Z" id="9"></path>
            <path d="M70.494,987.84 C70.494,983.20531 69.6250087,979.360682 67.887,976.306 C66.1489913,973.251318 63.8580142,970.802343 61.014,968.959 C58.1699858,967.115657 54.9310182,965.799004 51.297,965.009 C47.6629818,964.218996 43.8973528,963.824 40,963.824 C36.1026472,963.824 32.3370182,964.218996 28.703,965.009 C25.0689818,965.799004 21.8300142,967.115657 18.986,968.959 C16.1419858,970.802343 13.8510087,973.251318 12.113,976.306 C10.3749913,979.360682 9.506,983.20531 9.506,987.84 C9.506,991.632019 10.4276574,994.923653 12.271,997.715 C14.1143425,1000.50635 16.4843188,1002.77099 19.381,1004.509 C22.2776811,1006.24701 25.5429818,1007.53733 29.177,1008.38 C32.8110182,1009.22267 36.4186488,1009.644 40,1009.644 C43.5813512,1009.644 47.1889818,1009.22267 50.823,1008.38 C54.4570182,1007.53733 57.7223189,1006.24701 60.619,1004.509 C63.5156812,1002.77099 65.8856574,1000.50635 67.729,997.715 C69.5723426,994.923653 70.494,991.632019 70.494,987.84 Z M51.534,1011.066 C60.0660427,1011.90867 66.7809755,1014.88431 71.679,1019.993 C76.5770245,1025.10169 79.026,1031.76396 79.026,1039.98 C79.026,1045.56269 77.9726772,1050.35531 75.866,1054.358 C73.7593228,1058.36069 70.9416843,1061.65232 67.413,1064.233 C63.8843157,1066.81368 59.7500237,1068.70966 55.01,1069.921 C50.2699763,1071.13234 45.266693,1071.738 40,1071.738 C34.733307,1071.738 29.7300237,1071.13234 24.99,1069.921 C20.2499763,1068.70966 16.1156843,1066.81368 12.587,1064.233 C9.05831569,1061.65232 6.2406772,1058.36069 4.134,1054.358 C2.0273228,1050.35531 0.974,1045.56269 0.974,1039.98 C0.974,1031.76396 3.42297551,1025.10169 8.321,1019.993 C13.2190245,1014.88431 19.9339573,1011.90867 28.466,1011.066 L28.466,1010.75 C25.4113181,1010.32866 22.5410134,1009.45967 19.855,1008.143 C17.1689866,1006.82633 14.8253433,1005.19368 12.824,1003.245 C10.8226567,1001.29632 9.24267246,999.005346 8.084,996.372 C6.92532754,993.738654 6.346,990.894682 6.346,987.84 C6.346,982.994642 7.21499131,978.86035 8.953,975.437 C10.6910087,972.01365 13.0873181,969.196011 16.142,966.984 C19.1966819,964.771989 22.7779795,963.165672 26.886,962.165 C30.9940205,961.164328 35.3653102,960.664 40,960.664 C44.6346898,960.664 49.0059795,961.164328 53.114,962.165 C57.2220205,963.165672 60.8033181,964.771989 63.858,966.984 C66.9126819,969.196011 69.3089913,972.01365 71.047,975.437 C72.7850087,978.86035 73.654,982.994642 73.654,987.84 C73.654,990.894682 73.0746725,993.738654 71.916,996.372 C70.7573275,999.005346 69.1773433,1001.29632 67.176,1003.245 C65.1746567,1005.19368 62.8310134,1006.82633 60.145,1008.143 C57.4589866,1009.45967 54.5886819,1010.32866 51.534,1010.75 L51.534,1011.066 Z M75.866,1039.98 C75.866,1034.81864 74.8653433,1030.50002 72.864,1027.024 C70.8626567,1023.54798 68.2030166,1020.75668 64.885,1018.65 C61.5669834,1016.54332 57.7486883,1015.04234 53.43,1014.147 C49.1113117,1013.25166 44.6346898,1012.804 40,1012.804 C35.3653102,1012.804 30.8886883,1013.25166 26.57,1014.147 C22.2513117,1015.04234 18.4330166,1016.54332 15.115,1018.65 C11.7969834,1020.75668 9.13734334,1023.54798 7.136,1027.024 C5.13465666,1030.50002 4.134,1034.81864 4.134,1039.98 C4.134,1045.14136 5.10832359,1049.53898 7.057,1053.173 C9.00567641,1056.80702 11.6389834,1059.78266 14.957,1062.1 C18.2750166,1064.41734 22.0933117,1066.10266 26.412,1067.156 C30.7306883,1068.20934 35.2599763,1068.736 40,1068.736 C44.7400237,1068.736 49.2693117,1068.20934 53.588,1067.156 C57.9066883,1066.10266 61.7249834,1064.41734 65.043,1062.1 C68.3610166,1059.78266 70.9943236,1056.80702 72.943,1053.173 C74.8916764,1049.53898 75.866,1045.14136 75.866,1039.98 Z" id="8"></path>
            <path d="M0.638,843.72 L65.734,843.72 C58.4659637,850.988036 51.8563631,858.519294 45.905,866.314 C39.9536369,874.108706 34.8450213,882.29829 30.579,890.883 C26.3129787,899.46771 23.047678,908.499953 20.783,917.98 C18.518322,927.460047 17.4386661,937.466614 17.544,948 L20.704,948 C20.704,937.255946 21.8626551,927.223047 24.18,917.901 C26.4973449,908.578953 29.7626456,899.731042 33.976,891.357 C38.1893544,882.982958 43.29797,874.951372 49.302,867.262 C55.30603,859.572628 61.9419637,852.094036 69.21,844.826 L69.21,840.56 L0.638,840.56 L0.638,843.72 Z" id="7"></path>
            <path d="M70.63,747.84 C69.5766614,742.994642 67.917678,739.018349 65.653,735.911 C63.388322,732.803651 60.8340142,730.354676 57.99,728.564 C55.1459858,726.773324 52.1966819,725.53567 49.142,724.851 C46.0873181,724.16633 43.1906804,723.824 40.452,723.824 C32.4466266,723.824 25.9686914,725.825313 21.018,729.828 C16.0673086,733.830687 12.2490134,738.886636 9.563,744.996 C6.87698657,751.105364 5.11267088,757.688631 4.27,764.746 C3.42732912,771.803369 3.05866614,778.439302 3.164,784.654 L3.48,784.654 C4.21733702,780.861981 5.66565587,777.33335 7.825,774.068 C9.98434413,770.80265 12.6176511,767.932346 15.725,765.457 C18.8323489,762.981654 22.3609802,761.05934 26.311,759.69 C30.2610197,758.32066 34.3426456,757.636 38.556,757.636 C43.1906898,757.636 47.746311,758.531324 52.223,760.322 C56.6996891,762.112676 60.6759826,764.64065 64.152,767.906 C67.6280174,771.17135 70.4193228,775.068644 72.526,779.598 C74.6326772,784.127356 75.686,789.183305 75.686,794.766 C75.686,800.138027 74.6853433,805.088644 72.684,809.618 C70.6826567,814.147356 67.9703504,818.04465 64.547,821.31 C61.1236496,824.57535 57.1736891,827.129657 52.697,828.973 C48.220311,830.816343 43.5066914,831.738 38.556,831.738 C34.8693149,831.738 31.4196827,831.264005 28.207,830.316 C24.9943173,829.367995 22.0713465,828.104008 19.438,826.524 C16.8046535,824.943992 14.4610103,823.153343 12.407,821.152 C10.3529897,819.150657 8.64134018,817.096677 7.272,814.99 C4.21731806,810.249976 2.26867088,804.851697 1.426,798.795 C0.58332912,792.738303 0.162,786.234035 0.162,779.282 C0.162,772.645967 0.79399368,765.852035 2.058,758.9 C3.32200632,751.947965 5.50765113,745.628028 8.615,739.94 C11.7223489,734.251972 15.8566409,729.617351 21.018,726.036 C26.1793591,722.454649 32.7099605,720.664 40.61,720.664 C45.2446898,720.664 49.4843141,721.374993 53.329,722.797 C57.1736859,724.219007 60.5179858,726.141321 63.362,728.564 C66.2060142,730.986679 68.5233244,733.856983 70.314,737.175 C72.1046756,740.493017 73.2633307,744.047981 73.79,747.84 L70.63,747.84 Z M72.526,794.766 C72.526,790.025976 71.6306756,785.602021 69.84,781.494 C68.0493244,777.385979 65.6266819,773.804682 62.572,770.75 C59.5173181,767.695318 55.9360205,765.272676 51.828,763.482 C47.7199795,761.691324 43.2960237,760.796 38.556,760.796 C33.8159763,760.796 29.3920205,761.691324 25.284,763.482 C21.1759795,765.272676 17.5946819,767.695318 14.54,770.75 C11.4853181,773.804682 9.06267562,777.385979 7.272,781.494 C5.48132438,785.602021 4.586,790.025976 4.586,794.766 C4.586,799.506024 5.48132438,803.929979 7.272,808.038 C9.06267562,812.146021 11.4853181,815.727318 14.54,818.782 C17.5946819,821.836682 21.1759795,824.259324 25.284,826.05 C29.3920205,827.840676 33.8159763,828.736 38.556,828.736 C43.2960237,828.736 47.7199795,827.840676 51.828,826.05 C55.9360205,824.259324 59.5173181,821.836682 62.572,818.782 C65.6266819,815.727318 68.0493244,812.146021 69.84,808.038 C71.6306756,803.929979 72.526,799.506024 72.526,794.766 Z" id="6"></path>
            <path d="M18.226,603.72 L70.84,603.72 L70.84,600.56 L15.698,600.56 L4.164,654.754 L8.114,654.754 C11.0633481,649.381973 15.2239731,645.300347 20.596,642.509 C25.9680269,639.717653 31.8139684,638.322 38.134,638.322 C43.1900253,638.322 47.8246456,639.164658 52.038,640.85 C56.2513544,642.535342 59.8326519,644.878985 62.782,647.881 C65.7313481,650.883015 68.0223252,654.464313 69.655,658.625 C71.2876748,662.785687 72.104,667.341309 72.104,672.292 C72.104,677.453359 71.3140079,682.166979 69.734,686.433 C68.1539921,690.699021 65.8893481,694.332985 62.94,697.335 C59.9906519,700.337015 56.4356875,702.654325 52.275,704.287 C48.1143125,705.919675 43.400693,706.736 38.134,706.736 C32.9726409,706.736 28.2326883,705.998674 23.914,704.524 C19.5953117,703.049326 15.935015,700.890014 12.933,698.046 C9.93098499,695.201986 7.6400079,691.726021 6.06,687.618 C4.4799921,683.509979 3.79533228,678.822693 4.006,673.556 L0.846,673.556 C0.63533228,679.349362 1.42532438,684.484311 3.216,688.961 C5.00667562,693.437689 7.56098341,697.203318 10.879,700.258 C14.1970166,703.312682 18.1996432,705.656325 22.887,707.289 C27.5743568,708.921675 32.6566393,709.738 38.134,709.738 C43.7166946,709.738 48.772644,708.869009 53.302,707.131 C57.831356,705.392991 61.7286503,702.89135 64.994,699.626 C68.2593497,696.36065 70.7873244,692.41069 72.578,687.776 C74.3686756,683.14131 75.264,677.980028 75.264,672.292 C75.264,666.919973 74.3686756,661.943023 72.578,657.361 C70.7873244,652.778977 68.2593497,648.85535 64.994,645.59 C61.7286503,642.32465 57.831356,639.770343 53.302,637.927 C48.772644,636.083657 43.7166946,635.162 38.134,635.162 C31.8139684,635.162 26.0996922,636.320655 20.991,638.638 C15.8823078,640.955345 11.8006819,644.641975 8.746,649.698 L8.43,649.698 L18.226,603.72 Z" id="5"></path>
            <path d="M0.372,560.034 L0.372,556.242 L54.092,480.56 L58.042,480.56 L58.042,556.874 L77.476,556.874 L77.476,560.034 L58.042,560.034 L58.042,588 L54.882,588 L54.882,560.034 L0.372,560.034 Z M54.882,484.984 L54.566,484.984 L3.532,556.874 L54.882,556.874 L54.882,484.984 Z" id="4"></path>
            <path d="M3.322,395.898 L6.482,395.898 C6.37666614,390.525973 7.08765903,385.838687 8.615,381.836 C10.142341,377.833313 12.3806519,374.489013 15.33,371.803 C18.2793481,369.116987 21.8343125,367.115673 25.995,365.799 C30.1556875,364.482327 34.8166409,363.824 39.978,363.824 C43.770019,363.824 47.4566488,364.218996 51.038,365.009 C54.6193512,365.799004 57.8319858,367.115657 60.676,368.959 C63.5200142,370.802343 65.8373244,373.198652 67.628,376.148 C69.4186756,379.097348 70.3666661,382.731312 70.472,387.05 C70.472,391.474022 69.6293418,395.186985 67.944,398.189 C66.2586582,401.191015 64.0466804,403.613657 61.308,405.457 C58.5693196,407.300343 55.4883504,408.616996 52.065,409.407 C48.6416495,410.197004 45.1920174,410.592 41.716,410.592 L33.974,410.592 L33.974,413.752 L41.716,413.752 C46.1400221,413.962668 50.221648,414.594661 53.961,415.648 C57.700352,416.701339 60.9656527,418.281323 63.757,420.388 C66.5483473,422.494677 68.707659,425.18065 70.235,428.446 C71.762341,431.71135 72.526,435.66131 72.526,440.296 C72.526,444.93069 71.6043425,449.012316 69.761,452.541 C67.9176574,456.069684 65.4686819,459.045321 62.414,461.468 C59.3593181,463.890679 55.8306867,465.707661 51.828,466.919 C47.8253133,468.130339 43.6646883,468.736 39.346,468.736 C33.7633054,468.736 28.6546898,467.972341 24.02,466.445 C19.3853102,464.917659 15.4880158,462.679348 12.328,459.73 C9.1679842,456.780652 6.7980079,453.120355 5.218,448.749 C3.6379921,444.377645 3.05866456,439.348028 3.48,433.66 L0.32,433.66 C-0.10133544,439.769364 0.55699131,445.193976 2.295,449.934 C4.03300869,454.674024 6.63998262,458.650317 10.116,461.863 C13.5920174,465.075683 17.8053086,467.524658 22.756,469.21 C27.7066914,470.895342 33.2366361,471.738 39.346,471.738 C44.2966914,471.738 48.9576448,471.05334 53.329,469.684 C57.7003552,468.31466 61.5449834,466.287013 64.863,463.601 C68.1810166,460.914987 70.8143236,457.623353 72.763,453.726 C74.7116764,449.828647 75.686,445.352025 75.686,440.296 C75.686,435.66131 74.9750071,431.658684 73.553,428.288 C72.1309929,424.917316 70.2350118,422.099678 67.865,419.835 C65.4949881,417.570322 62.809015,415.832339 59.807,414.621 C56.804985,413.409661 53.7240158,412.646002 50.564,412.33 L50.564,412.014 C57.2000332,411.381997 62.7036448,408.959354 67.075,404.746 C71.4463552,400.532646 73.632,394.634038 73.632,387.05 C73.632,382.309976 72.6840095,378.254684 70.788,374.884 C68.8919905,371.513316 66.3640158,368.774677 63.204,366.668 C60.0439842,364.561323 56.4626867,363.034005 52.46,362.086 C48.4573133,361.137995 44.2966883,360.664 39.978,360.664 C34.3953054,360.664 29.3130229,361.401326 24.731,362.876 C20.1489771,364.350674 16.2516827,366.562652 13.039,369.512 C9.82631727,372.461348 7.37734176,376.121645 5.692,380.493 C4.00665824,384.864355 3.21666614,389.999304 3.322,395.898 Z" id="3"></path>
            <path d="M73.054,346.84 L3.85,346.84 C4.27133544,342.20531 6.21998262,337.91302 9.696,333.963 C13.1720174,330.01298 17.3589755,326.168352 22.257,322.429 C27.1550245,318.689648 32.3953054,314.950352 37.978,311.211 C43.5606946,307.471648 48.7483094,303.495354 53.541,299.282 C58.3336906,295.068646 62.3099842,290.539358 65.47,285.694 C68.6300158,280.848642 70.21,275.476696 70.21,269.578 C70.21,264.732642 69.3410087,260.519351 67.603,256.938 C65.8649913,253.356649 63.5213481,250.354679 60.572,247.932 C57.6226519,245.509321 54.1466867,243.692339 50.144,242.481 C46.1413133,241.269661 41.8226898,240.664 37.188,240.664 C25.7066093,240.664 17.0956954,243.902968 11.355,250.381 C5.61430463,256.859032 2.69133386,265.996608 2.586,277.794 L5.746,277.794 C5.746,272.843309 6.32532754,268.287687 7.484,264.127 C8.64267246,259.966313 10.4859874,256.385015 13.014,253.383 C15.5420126,250.380985 18.8073133,248.037342 22.81,246.352 C26.8126867,244.666658 31.6053054,243.824 37.188,243.824 C41.5066883,243.824 45.4829818,244.376994 49.117,245.483 C52.7510182,246.589006 55.8846535,248.221656 58.518,250.381 C61.1513465,252.540344 63.231659,255.226317 64.759,258.439 C66.286341,261.651683 67.05,265.364646 67.05,269.578 C67.05,273.791354 66.1283425,277.714982 64.285,281.349 C62.4416575,284.983018 59.9926819,288.406317 56.938,291.619 C53.8833181,294.831683 50.4073528,297.912652 46.51,300.862 C42.6126472,303.811348 38.6100205,306.707986 34.502,309.552 C30.4993133,312.396014 26.4703536,315.266319 22.415,318.163 C18.3596464,321.059681 14.6993497,324.114317 11.434,327.327 C8.16865034,330.539683 5.53534334,333.989315 3.534,337.676 C1.53265666,341.362685 0.58466614,345.470644 0.69,350 L73.054,350 L73.054,346.84 Z" id="2"></path>
            <path d="M29.084,124.668 L29.084,228 L32.244,228 L32.244,120.56 L28.768,120.56 C26.5559889,123.088013 24.4230103,125.352657 22.369,127.354 C20.3149897,129.355343 18.1820111,131.145992 15.97,132.726 C13.7579889,134.306008 11.3880126,135.727994 8.86,136.992 C6.33198736,138.256006 3.43534966,139.414661 0.17,140.468 L0.17,143.628 C5.54202686,142.153326 10.8349739,139.757017 16.049,136.439 C21.2630261,133.120983 25.5026503,129.197356 28.768,124.668 L29.084,124.668 Z" id="1"></path>
            <path d="M81.53,56.28 C81.53,63.021367 80.8716733,69.7099668 79.555,76.346 C78.2383267,82.9820332 76.0000158,88.933307 72.84,94.2 C69.6799842,99.466693 65.5193591,103.706317 60.358,106.919 C55.1966409,110.131683 48.7187056,111.738 40.924,111.738 C33.2346282,111.738 26.7830261,110.131683 21.569,106.919 C16.3549739,103.706317 12.1680158,99.466693 9.008,94.2 C5.8479842,88.933307 3.60967325,82.9820332 2.293,76.346 C0.97632675,69.7099668 0.318,63.021367 0.318,56.28 C0.318,49.538633 0.97632675,42.8500332 2.293,36.214 C3.60967325,29.5779668 5.8479842,23.626693 9.008,18.36 C12.1680158,13.093307 16.3549739,8.82734966 21.569,5.562 C26.7830261,2.29665034 33.2346282,0.664 40.924,0.664 C48.7187056,0.664 55.1966409,2.29665034 60.358,5.562 C65.5193591,8.82734966 69.6799842,13.093307 72.84,18.36 C76.0000158,23.626693 78.2383267,29.5779668 79.555,36.214 C80.8716733,42.8500332 81.53,49.538633 81.53,56.28 Z M78.37,56.28 C78.37,50.27597 77.7906725,44.1666977 76.632,37.952 C75.4733275,31.7373023 73.4720142,26.1020253 70.628,21.046 C67.7839858,15.9899747 63.9656906,11.8556827 59.173,8.643 C54.3803094,5.43031727 48.2973702,3.824 40.924,3.824 C33.5506298,3.824 27.4676906,5.43031727 22.675,8.643 C17.8823094,11.8556827 14.0640142,15.9899747 11.22,21.046 C8.37598578,26.1020253 6.37467246,31.7373023 5.216,37.952 C4.05732754,44.1666977 3.478,50.27597 3.478,56.28 C3.478,62.28403 4.05732754,68.3933023 5.216,74.608 C6.37467246,80.8226977 8.37598578,86.4579747 11.22,91.514 C14.0640142,96.5700253 17.8823094,100.704317 22.675,103.917 C27.4676906,107.129683 33.5506298,108.736 40.924,108.736 C48.2973702,108.736 54.3803094,107.129683 59.173,103.917 C63.9656906,100.704317 67.7839858,96.5700253 70.628,91.514 C73.4720142,86.4579747 75.4733275,80.8226977 76.632,74.608 C77.7906725,68.3933023 78.37,62.28403 78.37,56.28 Z" id="0"></path>
        </g>
    </g>
</svg>